<svg width="40" height="110" viewBox="0 0 40 110" fill="none" xmlns="http://www.w3.org/2000/svg">
<path d="M16.9687 20.9687L21.9688 15.9687L23.0312 17.0312L19.0937 20.9687L23.0312 24.9062L21.9687 25.9687L16.9687 20.9687Z" fill="white"/>
<path d="M22.4347 44.7187C22.8381 44.6733 23.1506 44.4858 23.3722 44.1562C23.5966 43.8267 23.7088 43.4119 23.7088 42.9119C23.7088 42.554 23.652 42.2443 23.5384 41.983C23.4276 41.7216 23.2741 41.5185 23.0781 41.3736C22.8849 41.2315 22.6648 41.1605 22.4176 41.1605C22.2102 41.1605 22.0313 41.2088 21.8807 41.3054C21.7301 41.4048 21.6037 41.5341 21.5014 41.6932C21.402 41.8551 21.3182 42.0284 21.25 42.2131C21.1847 42.3977 21.1307 42.5753 21.0881 42.7457L20.8665 43.598C20.7983 43.8764 20.706 44.1619 20.5895 44.4545C20.473 44.7472 20.3196 45.0185 20.1293 45.2685C19.9389 45.5185 19.7031 45.7202 19.4219 45.8736C19.1406 46.0298 18.804 46.108 18.4119 46.108C17.9176 46.108 17.4787 45.9801 17.0952 45.7244C16.7116 45.4716 16.4091 45.1037 16.1875 44.6207C15.9659 44.1406 15.8551 43.5597 15.8551 42.8778C15.8551 42.2244 15.9588 41.6591 16.1662 41.1818C16.3736 40.7045 16.6676 40.331 17.0483 40.0611C17.4318 39.7912 17.8864 39.642 18.4119 39.6136L18.4119 40.9347C18.0966 40.9602 17.8338 41.0625 17.6236 41.2415C17.4162 41.4233 17.2614 41.6548 17.1591 41.9361C17.0597 42.2202 17.0099 42.5312 17.0099 42.8693C17.0099 43.2415 17.0682 43.5724 17.1847 43.8622C17.304 44.1548 17.4687 44.3849 17.679 44.5526C17.892 44.7202 18.1406 44.804 18.4247 44.804C18.6832 44.804 18.8949 44.7301 19.0597 44.5824C19.2244 44.4375 19.3608 44.2401 19.4687 43.9901C19.5767 43.7429 19.6719 43.4631 19.7543 43.1506L20.0355 42.1193C20.2259 41.4205 20.5057 40.8665 20.875 40.4574C21.2443 40.0511 21.733 39.848 22.3409 39.848C22.8438 39.848 23.2827 39.9844 23.6577 40.2571C24.0327 40.5298 24.3239 40.8991 24.5312 41.3651C24.7415 41.831 24.8466 42.3565 24.8466 42.9418C24.8466 43.5327 24.7429 44.054 24.5355 44.5057C24.3281 44.9602 24.0426 45.3182 23.679 45.5795C23.3182 45.8409 22.9034 45.9773 22.4347 45.9886L22.4347 44.7187ZM15.8679 50.4002C15.8679 49.7553 16.0057 49.1999 16.2812 48.734C16.5597 48.271 16.9503 47.913 17.4531 47.6602C17.9588 47.4102 18.5511 47.2852 19.2301 47.2852C19.9006 47.2852 20.4915 47.4102 21.0028 47.6602C21.5142 47.913 21.9134 48.2653 22.2003 48.717C22.4872 49.1715 22.6307 49.7028 22.6307 50.3107C22.6307 50.68 22.5696 51.038 22.4474 51.3846C22.3253 51.7312 22.1335 52.0423 21.8722 52.3178C21.6108 52.5934 21.2713 52.8107 20.8537 52.9698C20.4389 53.1289 19.9347 53.2085 19.3409 53.2085L18.8892 53.2085L18.8892 48.0053L19.8437 48.0053L19.8437 51.9599C20.179 51.9599 20.4759 51.8917 20.7344 51.7553C20.9957 51.619 21.2017 51.4272 21.3523 51.18C21.5028 50.9357 21.5781 50.6488 21.5781 50.3192C21.5781 49.9613 21.4901 49.6488 21.3139 49.3817C21.1406 49.1175 20.9134 48.913 20.6321 48.7681C20.3537 48.6261 20.0511 48.555 19.7244 48.555L18.9787 48.555C18.5412 48.555 18.169 48.6317 17.8622 48.7852C17.5554 48.9414 17.321 49.1587 17.1591 49.4371C17 49.7156 16.9205 50.0408 16.9205 50.413C16.9205 50.6545 16.9545 50.8746 17.0227 51.0735C17.0937 51.2724 17.1989 51.4442 17.3381 51.5891C17.4773 51.734 17.6491 51.8448 17.8537 51.9215L17.6364 53.1275C17.2812 53.0309 16.9702 52.8576 16.7031 52.6076C16.4389 52.3604 16.233 52.0494 16.0852 51.6744C15.9403 51.3022 15.8679 50.8775 15.8679 50.4002ZM15.8679 57.3793C15.8679 56.7457 16.0114 56.2003 16.2983 55.7429C16.5881 55.2884 16.9872 54.9389 17.4957 54.6946C18.0043 54.4503 18.5866 54.3281 19.2429 54.3281C19.9077 54.3281 20.4943 54.4531 21.0028 54.7031C21.5142 54.9531 21.9134 55.3054 22.2003 55.7599C22.4872 56.2145 22.6307 56.75 22.6307 57.3665C22.6307 57.8636 22.5384 58.3068 22.3537 58.696C22.1719 59.0852 21.9162 59.3991 21.5866 59.6378C21.2571 59.8793 20.8722 60.0227 20.4318 60.0682L20.4318 58.8281C20.7386 58.7599 21.0028 58.6037 21.2244 58.3594C21.446 58.1179 21.5568 57.794 21.5568 57.3878C21.5568 57.0327 21.4631 56.7216 21.2756 56.4545C21.0909 56.1903 20.8267 55.9844 20.483 55.8366C20.142 55.6889 19.7386 55.6151 19.2727 55.6151C18.7955 55.6151 18.3835 55.6875 18.0369 55.8324C17.6903 55.9773 17.4219 56.1818 17.2315 56.446C17.0412 56.7131 16.946 57.027 16.946 57.3878C16.946 57.6293 16.9901 57.848 17.0781 58.044C17.169 58.2429 17.2983 58.4091 17.4659 58.5426C17.6335 58.679 17.8352 58.7741 18.071 58.8281L18.071 60.0682C17.6477 60.0227 17.2699 59.8849 16.9375 59.6548C16.6051 59.4247 16.3437 59.1165 16.1534 58.7301C15.9631 58.3466 15.8679 57.8963 15.8679 57.3793ZM22.5455 64.4862L21.5227 64.4862L21.5227 60.9109L22.5455 60.9109L22.5455 64.4862ZM24.1136 61.8697L24.1136 63.1438L17.9219 63.1438C17.6747 63.1438 17.4886 63.1808 17.3636 63.2546C17.2415 63.3285 17.1577 63.4237 17.1122 63.5401C17.0696 63.6594 17.0483 63.7887 17.0483 63.9279C17.0483 64.0302 17.0554 64.1197 17.0696 64.1964C17.0838 64.2731 17.0952 64.3327 17.1037 64.3754L16.0511 64.6055C16.0227 64.5316 15.9943 64.4265 15.9659 64.2901C15.9347 64.1538 15.9176 63.9833 15.9148 63.7788C15.9091 63.4435 15.9687 63.131 16.0937 62.8413C16.2187 62.5515 16.4119 62.3171 16.6733 62.1381C16.9347 61.9592 17.2628 61.8697 17.6577 61.8697L24.1136 61.8697ZM16 65.8956L22.5455 65.8956L22.5455 67.1697L16 67.1697L16 65.8956ZM23.5554 66.5391C23.5554 66.3175 23.6293 66.1271 23.777 65.968C23.9276 65.8118 24.1065 65.7337 24.3139 65.7337C24.5241 65.7337 24.7031 65.8118 24.8509 65.968C25.0014 66.1271 25.0767 66.3175 25.0767 66.5391C25.0767 66.7607 25.0014 66.9496 24.8509 67.1058C24.7031 67.2649 24.5241 67.3445 24.3139 67.3445C24.1065 67.3445 23.9276 67.2649 23.777 67.1058C23.6293 66.9496 23.5554 66.7607 23.5554 66.5391ZM15.8679 71.641C15.8679 71.0273 16.0085 70.4918 16.2898 70.0344C16.571 69.5771 16.9645 69.2219 17.4702 68.9691C17.9759 68.7163 18.5668 68.5898 19.2429 68.5898C19.9219 68.5898 20.5156 68.7163 21.0241 68.9691C21.5327 69.2219 21.9276 69.5771 22.2088 70.0344C22.4901 70.4918 22.6307 71.0273 22.6307 71.641C22.6307 72.2546 22.4901 72.7901 22.2088 73.2475C21.9276 73.7049 21.5327 74.06 21.0241 74.3129C20.5156 74.5657 19.9219 74.6921 19.2429 74.6921C18.5668 74.6921 17.9759 74.5657 17.4702 74.3129C16.9645 74.06 16.571 73.7049 16.2898 73.2475C16.0085 72.7901 15.8679 72.2546 15.8679 71.641ZM16.9375 71.6452C16.9375 72.043 17.0426 72.3725 17.2528 72.6339C17.4631 72.8952 17.7429 73.0884 18.0923 73.2134C18.4418 73.3413 18.8267 73.4052 19.2472 73.4052C19.6648 73.4052 20.0483 73.3413 20.3977 73.2134C20.75 73.0884 21.0327 72.8952 21.2457 72.6339C21.4588 72.3725 21.5653 72.043 21.5653 71.6452C21.5653 71.2447 21.4588 70.9123 21.2457 70.6481C21.0327 70.3867 20.75 70.1921 20.3977 70.0643C20.0483 69.9393 19.6648 69.8768 19.2472 69.8768C18.8267 69.8768 18.4418 69.9393 18.0923 70.0643C17.7429 70.1921 17.4631 70.3867 17.2528 70.6481C17.0426 70.9123 16.9375 71.2447 16.9375 71.6452ZM19.8864 77.3885L16 77.3885L16 76.1143L22.5455 76.1143L22.5455 77.3374L21.4801 77.3374L21.4801 77.4183C21.8267 77.5689 22.1051 77.8047 22.3153 78.1257C22.5256 78.4496 22.6307 78.8572 22.6307 79.3487C22.6307 79.7947 22.5369 80.1854 22.3494 80.5206C22.1648 80.8558 21.8892 81.1158 21.5227 81.3004C21.1562 81.4851 20.7031 81.5774 20.1634 81.5774L16 81.5774L16 80.3033L20.0099 80.3033C20.4844 80.3033 20.8551 80.1797 21.1222 79.9325C21.392 79.6854 21.527 79.3459 21.527 78.9141C21.527 78.6186 21.4631 78.3558 21.3352 78.1257C21.2074 77.8984 21.0199 77.718 20.7727 77.5845C20.5284 77.4538 20.233 77.3885 19.8864 77.3885ZM20.9474 88.1911L20.7429 87.0362C20.8906 86.9879 21.0312 86.9112 21.1648 86.8061C21.2983 86.7038 21.4077 86.5646 21.4929 86.3885C21.5781 86.2124 21.6207 85.9922 21.6207 85.728C21.6207 85.3672 21.5398 85.0661 21.3778 84.8246C21.2187 84.5831 21.0128 84.4624 20.7599 84.4624C20.5412 84.4624 20.3651 84.5433 20.2315 84.7053C20.098 84.8672 19.9886 85.1286 19.9034 85.4893L19.6648 86.5291C19.5256 87.1314 19.3111 87.5803 19.0213 87.8757C18.7315 88.1712 18.3551 88.3189 17.892 88.3189C17.5 88.3189 17.1506 88.2053 16.8437 87.978C16.5398 87.7536 16.3011 87.4396 16.1278 87.0362C15.9545 86.6357 15.8679 86.1712 15.8679 85.6428C15.8679 84.9098 16.0241 84.3118 16.3366 83.8487C16.652 83.3857 17.0994 83.1016 17.679 82.9964L17.8665 84.228C17.5455 84.3047 17.3026 84.4624 17.1378 84.701C16.9759 84.9396 16.8949 85.2507 16.8949 85.6342C16.8949 86.0518 16.9815 86.3857 17.1548 86.6357C17.331 86.8857 17.5455 87.0107 17.7983 87.0107C18.0028 87.0107 18.1747 86.9339 18.3139 86.7805C18.4531 86.63 18.5582 86.3984 18.6293 86.0859L18.8722 84.978C19.0114 84.3672 19.233 83.9155 19.5369 83.6229C19.8409 83.3331 20.2259 83.1882 20.6918 83.1882C21.0781 83.1882 21.4162 83.2962 21.706 83.5121C21.9957 83.728 22.2216 84.0263 22.3835 84.407C22.5483 84.7876 22.6307 85.2237 22.6307 85.7152C22.6307 86.4226 22.4773 86.9794 22.1705 87.3857C21.8665 87.7919 21.4588 88.0604 20.9474 88.1911Z" fill="white"/>
</svg>
