<?xml version="1.0" encoding="UTF-8"?>
<svg width="30px" height="40px" viewBox="0 0 30 40" version="1.1" xmlns="http://www.w3.org/2000/svg" xmlns:xlink="http://www.w3.org/1999/xlink">
    <title>audiodescription</title>
    <g id="audiodescription" stroke="none" stroke-width="1" fill="none" fill-rule="evenodd">
        <g transform="translate(2.000000, 14.000000)" fill="#FFFFFF" fill-rule="nonzero" id="Shape">
            <path d="M5.29562552,0 L0,12 L2.97743104,12 L3.6366676,10.497948 L6.12148231,10.497948 L6.12148231,12 L8.77291725,12 C11.6851491,12 14.0685428,9.2995896 14.0685428,6 C14.0685428,2.7004104 11.6851491,0 8.77291725,0 L5.29562552,0 Z M12.7066035,0 C14.3293396,1.3625171 15.3942602,3.5376197 15.3942602,6 C15.3942602,8.4623803 14.3293396,10.6374829 12.7066035,12 L16.3939816,12 C17.4444135,10.2927497 18.0529395,8.23255814 18.0529395,6 C18.0529395,3.76744186 17.4444135,1.69904241 16.3939816,0 L12.7066035,0 Z M17.9225411,0 C18.8280858,1.77291382 19.3714126,3.81668947 19.3714126,6 C19.3714126,8.18331053 18.8280858,10.2352941 17.9225411,12 L20.8999721,12 C21.6171636,10.1614227 22.0228476,8.13406293 22.0228476,6 C22.0228476,3.86593707 21.6171636,1.83857729 20.9072165,0 L17.9225411,0 Z M22.356088,0 C23.0008359,1.86320109 23.3485651,3.89056088 23.3485651,6 C23.3485651,8.10943912 23.0008359,10.1367989 22.356088,12 L25.1741432,12 C25.71747,10.1039672 26,8.09302326 26,6 C26,3.90697674 25.71747,1.8878249 25.1741432,0 L22.356088,0 Z M8.77291725,2.99589603 C10.2507662,2.99589603 11.4243522,4.31737346 11.4243522,6 C11.4243522,7.68262654 10.2580106,9.00410397 8.77291725,9.00410397 L8.77291725,2.99589603 Z M6.12872666,4.875513 L6.12872666,7.50205198 L4.96962942,7.50205198 L6.12872666,4.875513 Z"></path>
        </g>
    </g>
</svg>