<svg width="40" height="40" viewBox="0 0 40 40" fill="none" xmlns="http://www.w3.org/2000/svg">
<path d="M25.7146 24.4584C25.5021 24.4584 25.3229 24.3865 25.1771 24.2427C25.0312 24.099 24.9583 23.9209 24.9583 23.7084C24.9583 23.5972 24.9792 23.5 25.0208 23.4167C25.0625 23.3334 25.1181 23.257 25.1875 23.1875C25.5903 22.7847 25.9097 22.3104 26.1458 21.7644C26.3819 21.2183 26.5 20.6315 26.5 20.004C26.5 19.3763 26.3819 18.7917 26.1458 18.25C25.9097 17.7084 25.5903 17.2361 25.1875 16.8334C25.1181 16.7639 25.0625 16.684 25.0208 16.5938C24.9792 16.5035 24.9583 16.4028 24.9583 16.2917C24.9583 16.0792 25.0302 15.9011 25.174 15.7573C25.3177 15.6136 25.4958 15.5417 25.7083 15.5417C25.8194 15.5417 25.9201 15.5625 26.0104 15.6042C26.1007 15.6459 26.1806 15.7014 26.25 15.7709C26.7917 16.3125 27.2188 16.9445 27.5312 17.6667C27.8438 18.3889 28 19.1656 28 19.9969C28 20.8283 27.8438 21.6061 27.5312 22.3302C27.2188 23.0545 26.7917 23.6875 26.25 24.2292C26.1806 24.2986 26.099 24.3542 26.0052 24.3959C25.9115 24.4375 25.8146 24.4584 25.7146 24.4584ZM23.5819 22.3334C23.3745 22.3334 23.2014 22.2615 23.0625 22.1177C22.9236 21.974 22.8542 21.7959 22.8542 21.5834C22.8542 21.4722 22.8715 21.375 22.9062 21.2917C22.941 21.2084 22.9951 21.1337 23.0685 21.0677C23.2034 20.9223 23.309 20.7605 23.3854 20.5823C23.4618 20.404 23.5 20.2091 23.5 19.9977C23.5 19.7865 23.4618 19.5917 23.3854 19.4134C23.309 19.235 23.2034 19.0743 23.0685 18.9311C22.9951 18.8659 22.941 18.7917 22.9062 18.7084C22.8715 18.625 22.8542 18.5278 22.8542 18.4167C22.8542 18.2042 22.9236 18.0261 23.0625 17.8823C23.2014 17.7386 23.3771 17.6667 23.5896 17.6667C23.6896 17.6667 23.7865 17.684 23.8802 17.7188C23.974 17.7535 24.0556 17.8056 24.125 17.875C24.3972 18.1549 24.6111 18.4761 24.7667 18.8388C24.9222 19.2014 25 19.5863 25 19.9936C25 20.4006 24.9236 20.7882 24.7708 21.1563C24.6181 21.5243 24.4015 21.8447 24.121 22.1175C24.0542 22.192 23.9751 22.2465 23.8835 22.2813C23.7922 22.316 23.6916 22.3334 23.5819 22.3334ZM11.7544 23C11.5431 23 11.3646 22.9281 11.2188 22.7842C11.0729 22.6402 11 22.4618 11 22.2492V18.4946C11 18.0815 11.1472 17.7292 11.4415 17.4375C11.7356 17.1459 12.0893 17 12.5025 17H14.0052C14.4184 17 14.7708 17.1468 15.0625 17.4402C15.3542 17.7336 15.5 18.0863 15.5 18.4984V22.2442C15.5 22.4564 15.4285 22.6354 15.2856 22.7813C15.1427 22.9271 14.9656 23 14.7544 23C14.5431 23 14.3646 22.9281 14.2188 22.7844C14.0729 22.6406 14 22.4625 14 22.25V21.25H12.5V22.25C12.5 22.4625 12.4285 22.6406 12.2856 22.7844C12.1427 22.9281 11.9656 23 11.7544 23ZM12.5 19.75H14V18.5H12.5V19.75ZM17.5 23C17.3556 23 17.2361 22.9528 17.1417 22.8584C17.0472 22.7639 17 22.6445 17 22.5V17.5C17 17.3556 17.0472 17.2361 17.1417 17.1417C17.2361 17.0472 17.3556 17 17.5 17H19.9923C20.4141 17 20.7708 17.1471 21.0625 17.4413C21.3542 17.7353 21.5 18.0888 21.5 18.5019V21.5054C21.5 21.9185 21.3531 22.2709 21.0594 22.5625C20.7656 22.8542 20.4125 23 20 23H17.5ZM18.5 21.5H20V18.5H18.5V21.5Z" fill="white"/>
</svg>
