<?xml version="1.0" encoding="UTF-8" standalone="no"?>
<svg width="30px" height="40px" viewBox="0 0 30 40" version="1.1" xmlns="http://www.w3.org/2000/svg" xmlns:xlink="http://www.w3.org/1999/xlink">
    <!-- Generator: Sketch 3.7.2 (28276) - http://www.bohemiancoding.com/sketch -->
    <title>cc-active-dark</title>
    <desc>Created with Sketch.</desc>
    <defs></defs>
    <g id="Page-1" stroke="none" stroke-width="1" fill="none" fill-rule="evenodd">
        <g id="cc-active-dark" fill="#000000">
            <path d="M4,12 L26,12 L26,25 L4,25 L4,12 Z M14.24,18.65 C14.27,18.65 14.3,18.64 14.29,18.6 C14.02,17.5 13.18,16.84 11.91,16.84 C10.34,16.84 9.44,17.9 9.44,19.47 C9.44,21.03 10.34,22.1 11.91,22.1 C13.18,22.1 14.01,21.45 14.29,20.34 C14.3,20.3 14.27,20.29 14.24,20.29 L13.35,20.29 C13.32,20.29 13.3,20.31 13.29,20.34 C13.07,20.93 12.59,21.25 11.91,21.25 C10.96,21.25 10.39,20.51 10.39,19.47 C10.39,18.43 10.96,17.69 11.91,17.69 C12.59,17.69 13.07,18.01 13.29,18.6 C13.3,18.63 13.32,18.65 13.35,18.65 L14.24,18.65 Z M20.1075,18.65 C20.1375,18.65 20.1675,18.64 20.1575,18.6 C19.8875,17.5 19.0475,16.84 17.7775,16.84 C16.2075,16.84 15.3075,17.9 15.3075,19.47 C15.3075,21.03 16.2075,22.1 17.7775,22.1 C19.0475,22.1 19.8775,21.45 20.1575,20.34 C20.1675,20.3 20.1375,20.29 20.1075,20.29 L19.2175,20.29 C19.1875,20.29 19.1675,20.31 19.1575,20.34 C18.9375,20.93 18.4575,21.25 17.7775,21.25 C16.8275,21.25 16.2575,20.51 16.2575,19.47 C16.2575,18.43 16.8275,17.69 17.7775,17.69 C18.4575,17.69 18.9375,18.01 19.1575,18.6 C19.1675,18.63 19.1875,18.65 19.2175,18.65 L20.1075,18.65 Z" id="Combined-Shape"></path>
        </g>
    </g>
</svg>