<svg width="40" height="40" viewBox="0 0 40 40" fill="none" xmlns="http://www.w3.org/2000/svg">
<path d="M25.25 14H14.75C13.9175 14 13.25 14.675 13.25 15.5V24.5C13.25 25.325 13.9175 26 14.75 26H25.25C26.075 26 26.75 25.325 26.75 24.5V15.5C26.75 14.675 26.075 14 25.25 14ZM19.25 19.25H18.125V18.875H16.625V21.125H18.125V20.75H19.25V21.5C19.25 21.9125 18.9125 22.25 18.5 22.25H16.25C15.8375 22.25 15.5 21.9125 15.5 21.5V18.5C15.5 18.0875 15.8375 17.75 16.25 17.75H18.5C18.9125 17.75 19.25 18.0875 19.25 18.5V19.25ZM24.5 19.25H23.375V18.875H21.875V21.125H23.375V20.75H24.5V21.5C24.5 21.9125 24.1625 22.25 23.75 22.25H21.5C21.0875 22.25 20.75 21.9125 20.75 21.5V18.5C20.75 18.0875 21.0875 17.75 21.5 17.75H23.75C24.1625 17.75 24.5 18.0875 24.5 18.5V19.25Z" fill="black"/>
</svg>
