<?xml version="1.0" encoding="UTF-8" standalone="no"?>
<svg width="30px" height="40px" viewBox="0 0 30 40" version="1.1" xmlns="http://www.w3.org/2000/svg" xmlns:xlink="http://www.w3.org/1999/xlink">
    <!-- Generator: Sketch 3.7.2 (28276) - http://www.bohemiancoding.com/sketch -->
    <title>cc</title>
    <desc>Created with Sketch.</desc>
    <defs></defs>
    <g id="Page-1" stroke="none" stroke-width="1" fill="none" fill-rule="evenodd">
        <g id="cc" fill="#FFFFFF">
            <path d="M4,12 L26,12 L26,28 L4,28 L4,12 Z M14.24,19.65 C14.27,19.65 14.3,19.64 14.29,19.6 C14.02,18.5 13.18,17.84 11.91,17.84 C10.34,17.84 9.44,18.9 9.44,20.47 C9.44,22.03 10.34,23.1 11.91,23.1 C13.18,23.1 14.01,22.45 14.29,21.34 C14.3,21.3 14.27,21.29 14.24,21.29 L13.35,21.29 C13.32,21.29 13.3,21.31 13.29,21.34 C13.07,21.93 12.59,22.25 11.91,22.25 C10.96,22.25 10.39,21.51 10.39,20.47 C10.39,19.43 10.96,18.69 11.91,18.69 C12.59,18.69 13.07,19.01 13.29,19.6 C13.3,19.63 13.32,19.65 13.35,19.65 L14.24,19.65 Z M20.1075,19.65 C20.1375,19.65 20.1675,19.64 20.1575,19.6 C19.8875,18.5 19.0475,17.84 17.7775,17.84 C16.2075,17.84 15.3075,18.9 15.3075,20.47 C15.3075,22.03 16.2075,23.1 17.7775,23.1 C19.0475,23.1 19.8775,22.45 20.1575,21.34 C20.1675,21.3 20.1375,21.29 20.1075,21.29 L19.2175,21.29 C19.1875,21.29 19.1675,21.31 19.1575,21.34 C18.9375,21.93 18.4575,22.25 17.7775,22.25 C16.8275,22.25 16.2575,21.51 16.2575,20.47 C16.2575,19.43 16.8275,18.69 17.7775,18.69 C18.4575,18.69 18.9375,19.01 19.1575,19.6 C19.1675,19.63 19.1875,19.65 19.2175,19.65 L20.1075,19.65 Z" id="Combined-Shape"></path>
        </g>
    </g>
</svg>