<svg width="40" height="40" viewBox="0 0 40 40" fill="none" xmlns="http://www.w3.org/2000/svg">
<path d="M20 11.7C15.4167 11.7 11.6667 15.4417 11.6667 20.05C11.6667 24.2167 14.7167 27.675 18.7 28.3V22.4667H16.5833V20.05H18.7V18.2083C18.7 16.1167 19.9417 14.9667 21.85 14.9667C22.7583 14.9667 23.7083 15.125 23.7083 15.125V17.1833H22.6583C21.625 17.1833 21.3 17.825 21.3 18.4833V20.05H23.6167L23.2417 22.4667H21.3V28.3C23.2637 27.9899 25.0518 26.9879 26.3416 25.4751C27.6314 23.9622 28.3378 22.038 28.3333 20.05C28.3333 15.4417 24.5833 11.7 20 11.7Z" fill="white"/>
</svg>
