<?xml version="1.0" encoding="UTF-8" standalone="no"?>
<svg width="40px" height="40px" viewBox="0 0 40 40" version="1.1" xmlns="http://www.w3.org/2000/svg" xmlns:xlink="http://www.w3.org/1999/xlink">
    <!-- Generator: Sketch 3.7.2 (28276) - http://www.bohemiancoding.com/sketch -->
    <title>facebook-dark</title>
    <desc>Created with Sketch.</desc>
    <defs></defs>
    <g id="Page-1" stroke="none" stroke-width="1" fill="none" fill-rule="evenodd">
        <g id="facebook-dark" fill="#000000">
            <path d="M27.4285714,5.21428571 L27.4285714,9.92857143 L24.625,9.92857143 C23.6011854,9.92857143 22.9107161,10.142855 22.5535714,10.5714286 C22.1964268,11.0000021 22.0178571,11.6428529 22.0178571,12.5 L22.0178571,15.875 L27.25,15.875 L26.5535714,21.1607143 L22.0178571,21.1607143 L22.0178571,34.7142857 L16.5535714,34.7142857 L16.5535714,21.1607143 L12,21.1607143 L12,15.875 L16.5535714,15.875 L16.5535714,11.9821429 C16.5535714,9.76784607 17.1726129,8.05060134 18.4107143,6.83035714 C19.6488157,5.61011295 21.2976087,5 23.3571429,5 C25.1071516,5 26.4642809,5.07142786 27.4285714,5.21428571 L27.4285714,5.21428571 Z" id="facebook"></path>
        </g>
    </g>
</svg>