<?xml version="1.0" encoding="UTF-8" standalone="no"?>
<svg width="40px" height="40px" viewBox="0 0 40 40" version="1.1" xmlns="http://www.w3.org/2000/svg" xmlns:xlink="http://www.w3.org/1999/xlink">
    <!-- Generator: Sketch 3.6.1 (26313) - http://www.bohemiancoding.com/sketch -->
    <title>facebook-hover</title>
    <desc>Created with Sketch.</desc>
    <defs></defs>
    <g id="Page-1" stroke="none" stroke-width="1" fill="none" fill-rule="evenodd">
        <g id="facebook-hover">
            <g>
                <rect id="Rectangle-path" fill="#1EC95B" x="0" y="0" width="40" height="40"></rect>
                <path d="M23.7884615,12.1081731 L23.7884615,14.4879808 L22.3731971,14.4879808 C21.8563676,14.4879808 21.5078134,14.5961528 21.327524,14.8125 C21.1472347,15.0288472 21.0570913,15.3533632 21.0570913,15.7860577 L21.0570913,17.4897837 L23.6983173,17.4897837 L23.3467548,20.1580529 L21.0570913,20.1580529 L21.0570913,27 L18.2986779,27 L18.2986779,20.1580529 L16,20.1580529 L16,17.4897837 L18.2986779,17.4897837 L18.2986779,15.5246394 C18.2986779,14.4068454 18.6111748,13.539967 19.2361779,12.9239784 C19.861181,12.3079897 20.6935044,12 21.7331731,12 C22.616591,12 23.3016803,12.0360573 23.7884615,12.1081731 L23.7884615,12.1081731 Z" id="Facebook" fill="#FFFFFF"></path>
            </g>
        </g>
    </g>
</svg>