<?xml version="1.0" encoding="UTF-8" standalone="no"?>
<svg width="40px" height="40px" viewBox="0 0 40 40" version="1.1" xmlns="http://www.w3.org/2000/svg" xmlns:xlink="http://www.w3.org/1999/xlink">
    <!-- Generator: Sketch 3.6.1 (26313) - http://www.bohemiancoding.com/sketch -->
    <title>facebook</title>
    <desc>Created with Sketch.</desc>
    <defs></defs>
    <g id="Page-1" stroke="none" stroke-width="1" fill="none" fill-rule="evenodd">
        <g id="facebook" fill="#013622">
            <g transform="translate(15.000000, 10.000000)" id="Facebook">
                <path d="M9.703125,0.991071429 L9.703125,3.9375 L7.95089286,3.9375 C7.31100871,3.9375 6.8794654,4.07142723 6.65625,4.33928571 C6.4330346,4.6071442 6.32142857,5.00892589 6.32142857,5.54464286 L6.32142857,7.65401786 L9.59151786,7.65401786 L9.15625,10.9575893 L6.32142857,10.9575893 L6.32142857,19.4285714 L2.90625,19.4285714 L2.90625,10.9575893 L0.0602678571,10.9575893 L0.0602678571,7.65401786 L2.90625,7.65401786 L2.90625,5.22098214 C2.90625,3.83704665 3.29315089,2.76376869 4.06696429,2.00111607 C4.84077768,1.23846345 5.87127333,0.857142857 7.15848214,0.857142857 C8.25223761,0.857142857 9.10044342,0.901785268 9.703125,0.991071429 L9.703125,0.991071429 Z"></path>
            </g>
        </g>
    </g>
</svg>