<?xml version="1.0" encoding="UTF-8" standalone="no"?>
<svg width="30px" height="40px" viewBox="0 0 30 40" version="1.1" xmlns="http://www.w3.org/2000/svg" xmlns:xlink="http://www.w3.org/1999/xlink">
    <!-- Generator: Sketch 3.7.2 (28276) - http://www.bohemiancoding.com/sketch -->
    <title>fullscreen-dark</title>
    <desc>Created with Sketch.</desc>
    <defs></defs>
    <g id="Page-1" stroke="none" stroke-width="1" fill="none" fill-rule="evenodd">
        <g id="fullscreen-dark" fill="#000000">
            <g transform="translate(4.000000, 12.000000)">
                <path d="M1,0 L6,0 L6,2 L2,2 L2,6 L0,6 L0,0 L1,0 Z" id="top-left"></path>
                <path d="M1,10 L6,10 L6,12 L2,12 L2,16 L0,16 L0,10 L1,10 Z" id="bottom-left" transform="translate(3.000000, 13.000000) scale(1, -1) translate(-3.000000, -13.000000) "></path>
                <path d="M17,0 L22,0 L22,2 L18,2 L18,6 L16,6 L16,0 L17,0 Z" id="top-right" transform="translate(19.000000, 3.000000) scale(-1, 1) translate(-19.000000, -3.000000) "></path>
                <path d="M17,10 L22,10 L22,12 L18,12 L18,16 L16,16 L16,10 L17,10 Z" id="bottom-right" transform="translate(19.000000, 13.000000) scale(-1, -1) translate(-19.000000, -13.000000) "></path>
            </g>
        </g>
    </g>
</svg>