<?xml version="1.0" encoding="UTF-8" standalone="no"?>
<svg width="30px" height="40px" viewBox="0 0 30 40" version="1.1" xmlns="http://www.w3.org/2000/svg" xmlns:xlink="http://www.w3.org/1999/xlink">
    <!-- Generator: Sketch 39.1 (31720) - http://www.bohemiancoding.com/sketch -->
    <title>fullscreen-dark</title>
    <desc>Created with Sketch.</desc>
    <defs></defs>
    <g id="Demonic" stroke="none" stroke-width="1" fill="none" fill-rule="evenodd">
        <g id="fullscreen-dark" fill="#000000">
            <path d="M8,12.0005 L8.8717,17.2401 L9.86335,16.18565 L12.6377,19.1374 L14.7089,16.93425 L11.935,13.98255 L12.9262,12.928 L8,12.0005 Z M23,12 L18.07435,12.92745 L19.06545,13.98255 L16.2911,16.9338 L18.3628,19.1374 L21.13715,16.18565 L22.1283,17.2401 L23,12 Z M23,28 L22.1278,22.7593 L21.1371,23.81385 L18.3628,20.86205 L16.291,23.06565 L19.06545,26.01805 L18.07435,27.0725 L23,28 Z M8,28 L12.92625,27.07265 L11.93505,26.01805 L14.709,23.0658 L12.6377,20.86205 L9.8634,23.81385 L8.8717,22.7593 L8,28 Z" id="Combined-Shape"></path>
        </g>
    </g>
</svg>