<?xml version="1.0" encoding="UTF-8" standalone="no"?>
<svg width="30px" height="40px" viewBox="0 0 30 40" version="1.1" xmlns="http://www.w3.org/2000/svg" xmlns:xlink="http://www.w3.org/1999/xlink">
    <!-- Generator: Sketch 39.1 (31720) - http://www.bohemiancoding.com/sketch -->
    <title>fullscreen</title>
    <desc>Created with Sketch.</desc>
    <defs></defs>
    <g id="Eve" stroke="none" stroke-width="1" fill="none" fill-rule="evenodd">
        <g id="fullscreen" fill="#FFFFFF">
            <path d="M19.187,14.65315 L20.3762,15.84585 L21.6584,14.55935 L23,15.9056 L23,12 L19.1072,12 L20.46925,13.3672 L19.187,14.65315 L19.187,14.65315 Z M21.63805,25.461 L20.35595,24.17445 L19.16675,25.3678 L20.4489,26.6537 L19.1072,28 L23,28 L23,24.0944 L21.63805,25.461 L21.63805,25.461 Z M10.813,25.34685 L9.6237,24.1548 L8.3416,25.44065 L7,24.0944 L7,28 L10.8928,28 L9.53075,26.63395 L10.813,25.34685 L10.813,25.34685 Z M9.64405,15.82555 L10.83325,14.6328 L9.5511,13.34685 L10.8928,12 L7,12 L7,15.9056 L8.36195,14.5396 L9.64405,15.82555 L9.64405,15.82555 Z M20,21.59845 L20,18.4015 C20,17.0756 18.79625,16 17.47485,16 L13.3938,16 C12.0724,16 11,17.0756 11,18.4015 L11,21.59845 C11,22.92445 12.0724,24 13.3938,24 L17.6062,24 C18.92765,24 20,22.92445 20,21.59845 L20,21.59845 Z" id="Shape"></path>
        </g>
    </g>
</svg>