<svg width="40" height="40" viewBox="0 0 40 40" fill="none" xmlns="http://www.w3.org/2000/svg">
<path d="M25.3585 20.905C25.3885 20.68 25.4035 20.4475 25.4035 20.2C25.4035 19.96 25.3885 19.72 25.351 19.495L26.8735 18.31C27.0085 18.205 27.046 18.0025 26.9635 17.8525L25.5235 15.3625C25.4335 15.1975 25.246 15.145 25.081 15.1975L23.2885 15.9175C22.9135 15.6325 22.516 15.3925 22.0735 15.2125L21.8035 13.3075C21.7735 13.1275 21.6235 13 21.4435 13H18.5635C18.3835 13 18.241 13.1275 18.211 13.3075L17.941 15.2125C17.4985 15.3925 17.0935 15.64 16.726 15.9175L14.9335 15.1975C14.7685 15.1375 14.581 15.1975 14.491 15.3625L13.0585 17.8525C12.9685 18.01 12.9985 18.205 13.1485 18.31L14.671 19.495C14.6335 19.72 14.6035 19.9675 14.6035 20.2C14.6035 20.4325 14.6185 20.68 14.656 20.905L13.1335 22.09C12.9985 22.195 12.961 22.3975 13.0435 22.5475L14.4835 25.0375C14.5735 25.2025 14.761 25.255 14.926 25.2025L16.7185 24.4825C17.0935 24.7675 17.491 25.0075 17.9335 25.1875L18.2035 27.0925C18.241 27.2725 18.3835 27.4 18.5635 27.4H21.4435C21.6235 27.4 21.7735 27.2725 21.796 27.0925L22.066 25.1875C22.5085 25.0075 22.9135 24.7675 23.281 24.4825L25.0735 25.2025C25.2385 25.2625 25.426 25.2025 25.516 25.0375L26.956 22.5475C27.046 22.3825 27.0085 22.195 26.866 22.09L25.3585 20.905ZM20.0035 22.9C18.5185 22.9 17.3035 21.685 17.3035 20.2C17.3035 18.715 18.5185 17.5 20.0035 17.5C21.4885 17.5 22.7035 18.715 22.7035 20.2C22.7035 21.685 21.4885 22.9 20.0035 22.9Z" fill="white"/>
</svg>
