<?xml version="1.0" encoding="UTF-8" standalone="no"?>
<svg width="30px" height="40px" viewBox="0 0 30 40" version="1.1" xmlns="http://www.w3.org/2000/svg" xmlns:xlink="http://www.w3.org/1999/xlink">
    <!-- Generator: Sketch 39.1 (31720) - http://www.bohemiancoding.com/sketch -->
    <title>gear-dark</title>
    <desc>Created with Sketch.</desc>
    <defs></defs>
    <g id="Eve" stroke="none" stroke-width="1" fill="none" fill-rule="evenodd">
        <g id="gear-dark" fill="#000000">
            <path d="M4,25.968661 L6.77362963,25.968661 L7.68326382,21.4558405 L11.3814701,21.4558405 L10.4718359,25.968661 L13.2454655,25.968661 L15.4700855,15 L12.693698,15 L11.8884604,19.5128205 L8.19030427,19.5128205 L8.99554188,15 L6.22191225,15 L4,25.968661 Z M15.2673595,25.8884832 L20.0657915,25.8884832 C24.22591,25.8884832 26,23.4184661 26,19.5185869 C26,16.0761071 24.22591,15.0801778 21.5699647,15.0801778 L17.5387123,15.0801778 L15.2673595,25.8884832 Z M19.8251077,17.0231977 L21.4346302,17.0231977 C22.7282553,17.0231977 23.5555556,17.7442963 23.5555556,19.7820855 C23.5555556,21.4158268 22.848547,23.9454632 20.426767,23.9454632 L18.5766108,23.9454632 L19.8251077,17.0231977 Z" id="Combined-Shape"></path>
        </g>
    </g>
</svg>