<?xml version="1.0" encoding="UTF-8" standalone="no"?>
<svg width="30px" height="40px" viewBox="0 0 30 40" version="1.1" xmlns="http://www.w3.org/2000/svg" xmlns:xlink="http://www.w3.org/1999/xlink">
    <!-- Generator: Sketch 3.7.2 (28276) - http://www.bohemiancoding.com/sketch -->
    <title>gear</title>
    <desc>Created with Sketch.</desc>
    <defs></defs>
    <g id="Page-1" stroke="none" stroke-width="1" fill="none" fill-rule="evenodd">
        <g id="gear" fill="#FFFFFF">
            <path d="M23,21.6 L23,18.4 L21.1984,18.4 C21.0472,17.8128 20.81456,17.2584 20.5136,16.74912 L21.78816,15.47456 L19.52544,13.21184 L18.25072,14.4864 C17.7416,14.1856 17.1872,13.9528 16.6,13.8016 L16.6,12 L13.4,12 L13.4,13.8016 C12.8128,13.9528 12.2584,14.18544 11.74912,14.48656 L10.4744,13.21184 L8.21168,15.47456 L9.4864,16.74928 C9.1856,17.25856 8.9528,17.8128 8.8016,18.4 L7,18.4 L7,21.6 L8.8016,21.6 C8.9528,22.1872 9.18544,22.7416 9.4864,23.25072 L8.21168,24.52544 L10.4744,26.78832 L11.74912,25.5136 C12.25856,25.8144 12.8128,26.0472 13.4,26.1984 L13.4,28 L16.6,28 L16.6,26.1984 C17.1872,26.0472 17.7416,25.81456 18.25072,25.5136 L19.52544,26.78832 L21.78816,24.52544 L20.5136,23.25072 C20.81456,22.74144 21.0472,22.1872 21.1984,21.6 L23,21.6 L23,21.6 Z M18.2,20 C18.2,21.768 16.76976,23.2 15,23.2 C13.23696,23.2 11.8,21.77376 11.8,20 C11.8,18.23152 13.23184,16.8 15,16.8 C16.76784,16.8 18.2,18.2304 18.2,20 L18.2,20 Z" id="quality"></path>
        </g>
    </g>
</svg>