<?xml version="1.0" encoding="UTF-8" standalone="no"?>
<svg width="30px" height="40px" viewBox="0 0 30 40" version="1.1" xmlns="http://www.w3.org/2000/svg" xmlns:xlink="http://www.w3.org/1999/xlink">
    <!-- Generator: Sketch 39.1 (31720) - http://www.bohemiancoding.com/sketch -->
    <title>gear-dark</title>
    <desc>Created with Sketch.</desc>
    <defs></defs>
    <g id="Demonic" stroke="none" stroke-width="1" fill="none" fill-rule="evenodd">
        <g id="gear-dark" fill="#000000">
            <path d="M26,17.1259333 L26,16.6639333 L26,16.3864889 L25.9144444,16.0630889 L25.8716667,15.8779222 L25.8286444,15.8779222 L25.70025,15.6009667 L25.4432167,15.3697222 L25.1861833,15.2310611 L24.8434111,15.0464444 L24.5862556,15 L24.02935,15 L17.8603056,15 L16.1039111,23.9202056 L15.6754,26 L22.2301778,26 L22.6156667,26 L22.9583778,26 L22.9583778,25.9536167 L23.25825,25.7224944 L23.30115,25.6761111 L23.6011444,25.5373889 L23.9007722,25.2604944 L24.2007667,24.8907111 L24.5007,24.3822667 L24.6721167,23.9202056 L24.8434111,23.3653167 L25.1431,22.0714722 L26,17.8192389 L26,17.4034389 L26,17.1259333 L26,17.1259333 Z M22.3157333,17.4444444 L22.44425,17.4444444 L22.2906167,17.1723167 L22.3333333,17.3110389 L22.3333333,17.6344389 L22.3333333,18.9285278 L21.4337778,23.5504833 L21.2875389,23.7814222 L21.2448222,23.5091722 L21.0733444,23.5555556 L19.4883056,23.5555556 L20.8164333,17.4444444 L22.3157333,17.4444444 L22.3157333,17.4444444 Z M4,26 L7.42735556,26 L8.19839444,22.3333333 L10.2120667,22.3333333 L9.44072222,26 L12.8681389,26 L14.9672444,15 L11.5398889,15 L10.7689111,18.6666667 L8.75560556,18.6666667 L9.52658333,15 L6.09922778,15 L4,26 L4,26 Z" id="Shape"></path>
        </g>
    </g>
</svg>