<svg width="40" height="40" viewBox="0 0 40 40" fill="none" xmlns="http://www.w3.org/2000/svg">
<path fill-rule="evenodd" clip-rule="evenodd" d="M12 13.1461C12 12.5133 12.526 12 13.1749 12H26.7242C27.3731 12 27.8991 12.5133 27.8991 13.1461V26.8539C27.8991 27.4869 27.3731 28 26.7242 28H13.1749C12.526 28 12 27.4869 12 26.8539V13.1461ZM16.8195 25.3936V18.1687H14.4181V25.3936H16.8195ZM15.6188 17.1822C16.4563 17.1822 16.9775 16.6274 16.9775 15.9341C16.9619 15.2252 16.4563 14.6858 15.6347 14.6858C14.8133 14.6858 14.2762 15.2252 14.2762 15.9341C14.2762 16.6274 14.7973 17.1822 15.6032 17.1822H15.6188ZM20.5494 25.3936H18.148C18.148 25.3936 18.1796 18.8466 18.1481 18.1687H20.5495V19.1916C20.544 19.1999 20.5387 19.2082 20.5334 19.2165H20.5495V19.1916C20.8686 18.6993 21.4398 17.9991 22.7136 17.9991C24.2936 17.9991 25.4783 19.0317 25.4783 21.2509V25.3936H23.0771V21.5284C23.0771 20.5571 22.7295 19.8946 21.8605 19.8946C21.1971 19.8946 20.802 20.3414 20.6284 20.7729C20.565 20.9272 20.5494 21.1429 20.5494 21.3589V25.3936Z" fill="black"/>
</svg>
