<?xml version="1.0" encoding="UTF-8" standalone="no"?>
<svg width="40px" height="40px" viewBox="0 0 40 40" version="1.1" xmlns="http://www.w3.org/2000/svg" xmlns:xlink="http://www.w3.org/1999/xlink">
    <!-- Generator: Sketch 3.7.2 (28276) - http://www.bohemiancoding.com/sketch -->
    <title>linkedin-dark</title>
    <desc>Created with Sketch.</desc>
    <defs></defs>
    <g id="Page-1" stroke="none" stroke-width="1" fill="none" fill-rule="evenodd">
        <g id="linkedin-dark" fill="#000000">
            <path d="M12.2321429,15.5178571 L12.2321429,33.2142857 L6.33928571,33.2142857 L6.33928571,15.5178571 L12.2321429,15.5178571 Z M12.6071429,10.0535714 C12.6190477,10.9226234 12.3184554,11.6488066 11.7053571,12.2321429 C11.0922588,12.8154791 10.2857193,13.1071429 9.28571429,13.1071429 L9.25,13.1071429 C8.27380464,13.1071429 7.48809821,12.8154791 6.89285714,12.2321429 C6.29761607,11.6488066 6,10.9226234 6,10.0535714 C6,9.17261464 6.30654455,8.44345527 6.91964286,7.86607143 C7.53274116,7.28868759 8.33332839,7 9.32142857,7 C10.3095288,7 11.1011875,7.28868759 11.6964286,7.86607143 C12.2916696,8.44345527 12.595238,9.17261464 12.6071429,10.0535714 L12.6071429,10.0535714 Z M33.4285714,23.0714286 L33.4285714,33.2142857 L27.5535714,33.2142857 L27.5535714,23.75 C27.5535714,22.4999937 27.3125024,21.5208369 26.8303571,20.8125 C26.3482119,20.1041631 25.5952432,19.75 24.5714286,19.75 C23.8214248,19.75 23.1934549,19.9553551 22.6875,20.3660714 C22.1815451,20.7767878 21.8035727,21.2857112 21.5535714,21.8928571 C21.4226184,22.2500018 21.3571429,22.7321398 21.3571429,23.3392857 L21.3571429,33.2142857 L15.4821429,33.2142857 C15.5059525,28.464262 15.5178571,24.61311 15.5178571,21.6607143 C15.5178571,18.7083186 15.5119048,16.9464314 15.5,16.375 L15.4821429,15.5178571 L21.3571429,15.5178571 L21.3571429,18.0892857 L21.3214286,18.0892857 C21.559525,17.7083314 21.8035702,17.3750014 22.0535714,17.0892857 C22.3035727,16.80357 22.6398788,16.4940493 23.0625,16.1607143 C23.4851212,15.8273793 24.0029731,15.5684533 24.6160714,15.3839286 C25.2291697,15.1994038 25.9107105,15.1071429 26.6607143,15.1071429 C28.6964387,15.1071429 30.3333271,15.7827313 31.5714286,17.1339286 C32.80953,18.4851258 33.4285714,20.4642727 33.4285714,23.0714286 L33.4285714,23.0714286 Z" id=""></path>
        </g>
    </g>
</svg>