<svg width="40" height="40" viewBox="0 0 40 40" fill="none" xmlns="http://www.w3.org/2000/svg">
<path d="M15.4956 21.5C15.0819 21.5 14.7292 21.3527 14.4375 21.0581C14.1458 20.7635 14 20.4093 14 19.9956C14 19.5819 14.1473 19.2292 14.4419 18.9375C14.7365 18.6458 15.0907 18.5 15.5044 18.5C15.9181 18.5 16.2708 18.6473 16.5625 18.9419C16.8542 19.2365 17 19.5907 17 20.0044C17 20.4181 16.8527 20.7708 16.5581 21.0625C16.2635 21.3542 15.9093 21.5 15.4956 21.5ZM19.9956 21.5C19.5819 21.5 19.2292 21.3527 18.9375 21.0581C18.6458 20.7635 18.5 20.4093 18.5 19.9956C18.5 19.5819 18.6473 19.2292 18.9419 18.9375C19.2365 18.6458 19.5907 18.5 20.0044 18.5C20.4181 18.5 20.7708 18.6473 21.0625 18.9419C21.3542 19.2365 21.5 19.5907 21.5 20.0044C21.5 20.4181 21.3527 20.7708 21.0581 21.0625C20.7635 21.3542 20.4093 21.5 19.9956 21.5ZM24.4956 21.5C24.0819 21.5 23.7292 21.3527 23.4375 21.0581C23.1458 20.7635 23 20.4093 23 19.9956C23 19.5819 23.1473 19.2292 23.4419 18.9375C23.7365 18.6458 24.0907 18.5 24.5044 18.5C24.9181 18.5 25.2708 18.6473 25.5625 18.9419C25.8542 19.2365 26 19.5907 26 20.0044C26 20.4181 25.8527 20.7708 25.5581 21.0625C25.2635 21.3542 24.9093 21.5 24.4956 21.5Z" fill="black"/>
</svg>
