<?xml version="1.0" encoding="UTF-8" standalone="no"?>
<svg width="40px" height="40px" viewBox="0 0 40 40" version="1.1" xmlns="http://www.w3.org/2000/svg" xmlns:xlink="http://www.w3.org/1999/xlink">
    <!-- Generator: Sketch 3.6.1 (26313) - http://www.bohemiancoding.com/sketch -->
    <title>mute-hover</title>
    <desc>Created with Sketch.</desc>
    <defs></defs>
    <g id="Page-1" stroke="none" stroke-width="1" fill="none" fill-rule="evenodd">
        <g id="mute-hover">
            <g>
                <rect id="Rectangle-path" fill="#1EC95B" x="0" y="0" width="40" height="40"></rect>
                <path d="M26.3076923,11.025641 L26.3076923,28.4615385 C26.3076923,28.7393176 26.2061976,28.9796998 26.0032051,29.1826923 C25.8002127,29.3856848 25.5598304,29.4871795 25.2820513,29.4871795 C25.0042721,29.4871795 24.7638899,29.3856848 24.5608974,29.1826923 L19.224359,23.8461538 L15.025641,23.8461538 C14.7478619,23.8461538 14.5074796,23.7446591 14.3044872,23.5416667 C14.1014947,23.3386742 14,23.098292 14,22.8205128 L14,16.6666667 C14,16.3888875 14.1014947,16.1485053 14.3044872,15.9455128 C14.5074796,15.7425204 14.7478619,15.6410256 15.025641,15.6410256 L19.224359,15.6410256 L24.5608974,10.3044872 C24.7638899,10.1014947 25.0042721,10 25.2820513,10 C25.5598304,10 25.8002127,10.1014947 26.0032051,10.3044872 C26.2061976,10.5074796 26.3076923,10.7478619 26.3076923,11.025641 L26.3076923,11.025641 Z" id="No-Sound" fill="#FFFFFF"></path>
            </g>
        </g>
    </g>
</svg>