<?xml version="1.0" encoding="UTF-8" standalone="no"?>
<svg width="40px" height="40px" viewBox="0 0 40 40" version="1.1" xmlns="http://www.w3.org/2000/svg" xmlns:xlink="http://www.w3.org/1999/xlink">
    <!-- Generator: Sketch 3.6.1 (26313) - http://www.bohemiancoding.com/sketch -->
    <title>mute-active</title>
    <desc>Created with Sketch.</desc>
    <defs></defs>
    <g id="Page-1" stroke="none" stroke-width="1" fill="none" fill-rule="evenodd">
        <g id="mute-active" fill="#1EC95B">
            <g transform="translate(14.000000, 10.000000)" id="No-Sound">
                <path d="M12.3076923,1.02564103 L12.3076923,18.4615385 C12.3076923,18.7393176 12.2061976,18.9796998 12.0032051,19.1826923 C11.8002127,19.3856848 11.5598304,19.4871795 11.2820513,19.4871795 C11.0042721,19.4871795 10.7638899,19.3856848 10.5608974,19.1826923 L5.22435897,13.8461538 L1.02564103,13.8461538 C0.747861859,13.8461538 0.507479647,13.7446591 0.304487179,13.5416667 C0.101494712,13.3386742 0,13.098292 0,12.8205128 L0,6.66666667 C0,6.3888875 0.101494712,6.14850529 0.304487179,5.94551282 C0.507479647,5.74252035 0.747861859,5.64102564 1.02564103,5.64102564 L5.22435897,5.64102564 L10.5608974,0.304487179 C10.7638899,0.101494712 11.0042721,0 11.2820513,0 C11.5598304,0 11.8002127,0.101494712 12.0032051,0.304487179 C12.2061976,0.507479647 12.3076923,0.747861859 12.3076923,1.02564103 L12.3076923,1.02564103 Z"></path>
            </g>
        </g>
    </g>
</svg>