<svg width="40" height="40" viewBox="0 0 40 40" fill="none" xmlns="http://www.w3.org/2000/svg">
<path d="M22.5023 14.25C22.223 14.25 21.9861 14.1535 21.7917 13.9606C21.5972 13.7678 21.5 13.5317 21.5 13.2523C21.5 12.973 21.5965 12.7361 21.7894 12.5417C21.9822 12.3472 22.2183 12.25 22.4977 12.25C22.777 12.25 23.0139 12.3465 23.2083 12.5394C23.4028 12.7322 23.5 12.9683 23.5 13.2477C23.5 13.527 23.4035 13.7639 23.2106 13.9583C23.0178 14.1528 22.7817 14.25 22.5023 14.25ZM22.5023 27.75C22.223 27.75 21.9861 27.6535 21.7917 27.4606C21.5972 27.2678 21.5 27.0317 21.5 26.7523C21.5 26.473 21.5965 26.2361 21.7894 26.0417C21.9822 25.8472 22.2183 25.75 22.4977 25.75C22.777 25.75 23.0139 25.8465 23.2083 26.0394C23.4028 26.2322 23.5 26.4683 23.5 26.7477C23.5 27.027 23.4035 27.2639 23.2106 27.4583C23.0178 27.6528 22.7817 27.75 22.5023 27.75ZM26.0023 17.25C25.723 17.25 25.4861 17.1535 25.2917 16.9606C25.0972 16.7678 25 16.5317 25 16.2523C25 15.973 25.0965 15.7361 25.2894 15.5417C25.4822 15.3472 25.7183 15.25 25.9977 15.25C26.277 15.25 26.5139 15.3465 26.7083 15.5394C26.9028 15.7322 27 15.9683 27 16.2477C27 16.527 26.9035 16.7639 26.7106 16.9583C26.5178 17.1528 26.2817 17.25 26.0023 17.25ZM26.0023 24.75C25.723 24.75 25.4861 24.6535 25.2917 24.4606C25.0972 24.2678 25 24.0317 25 23.7523C25 23.473 25.0965 23.2361 25.2894 23.0417C25.4822 22.8472 25.7183 22.75 25.9977 22.75C26.277 22.75 26.5139 22.8465 26.7083 23.0394C26.9028 23.2322 27 23.4683 27 23.7477C27 24.027 26.9035 24.2639 26.7106 24.4583C26.5178 24.6528 26.2817 24.75 26.0023 24.75ZM27.0023 21C26.723 21 26.4861 20.9035 26.2917 20.7106C26.0972 20.5178 26 20.2817 26 20.0023C26 19.723 26.0965 19.4861 26.2894 19.2917C26.4822 19.0972 26.7183 19 26.9977 19C27.277 19 27.5139 19.0965 27.7083 19.2894C27.9028 19.4822 28 19.7183 28 19.9977C28 20.277 27.9035 20.5139 27.7106 20.7083C27.5178 20.9028 27.2817 21 27.0023 21ZM20 28C18.8975 28 17.8615 27.7917 16.8919 27.375C15.9223 26.9583 15.0729 26.3854 14.3438 25.6562C13.6146 24.9271 13.0417 24.0767 12.625 23.105C12.2083 22.1333 12 21.0951 12 19.9904C12 18.8857 12.2083 17.8507 12.625 16.8854C13.0417 15.9201 13.6146 15.0729 14.3438 14.3438C15.0729 13.6146 15.9223 13.0417 16.8919 12.625C17.8615 12.2083 18.8975 12 20 12V13.5C18.1944 13.5 16.6597 14.1319 15.3958 15.3958C14.1319 16.6597 13.5 18.1944 13.5 20C13.5 21.8056 14.1319 23.3403 15.3958 24.6042C16.6597 25.8681 18.1944 26.5 20 26.5V28Z" fill="black"/>
<path d="M22.2619 20L18.3334 22.5V17.5L22.2619 20Z" fill="black"/>
</svg>
