<svg viewBox="0 0 32 32" xmlns="http://www.w3.org/2000/svg"><path d="M20.65 17.72a2 2 0 0 0 0-3.44l-5.26-3.12a2 2 0 0 0-3 1.72v6.24a2 2 0 0 0 2 2 2 2 0 0 0 1-.29l5.26-3.12Zm-6.28 1.4v-6.24L19.64 16Zm.22 8.88a1 1 0 0 1-1 .81h-.19a12.81 12.81 0 0 1-4.66-1.95 1 1 0 0 1-.27-1.38 1 1 0 0 1 1.39-.27 10.91 10.91 0 0 0 3.93 1.64 1 1 0 0 1 .8 1.15Zm-7.76-5.86a1 1 0 0 1-.28 1.39 1 1 0 0 1-.55.17 1 1 0 0 1-.83-.45 13.15 13.15 0 0 1-1.94-4.69 1 1 0 0 1 2-.38 11 11 0 0 0 1.6 3.96ZM6.84 10a10.83 10.83 0 0 0-1.63 4 1 1 0 0 1-1 .81.68.68 0 0 1-.2 0 1 1 0 0 1-.79-1.17 13 13 0 0 1 1.95-4.77A1 1 0 1 1 6.84 10Zm1.7-3.39a1 1 0 0 1 .28-1.38 12.83 12.83 0 0 1 4.69-1.92 1 1 0 1 1 .39 2 10.88 10.88 0 0 0-4 1.63 1 1 0 0 1-.52.06 1 1 0 0 1-.84-.41ZM29 16a13 13 0 0 1-10.39 12.74h-.2a1 1 0 0 1-.2-2 11 11 0 0 0 0-21.56A1 1 0 0 1 17.43 4a1 1 0 0 1 1.18-.78A13 13 0 0 1 29 16Z" data-name="Playback Speed" fill="#ffffff" class="fill-000000"></path></svg>