<?xml version="1.0" encoding="UTF-8" standalone="no"?>
<svg width="40px" height="40px" viewBox="0 0 40 40" version="1.1" xmlns="http://www.w3.org/2000/svg" xmlns:xlink="http://www.w3.org/1999/xlink">
    <!-- Generator: Sketch 3.6.1 (26313) - http://www.bohemiancoding.com/sketch -->
    <title>quality</title>
    <desc>Created with Sketch.</desc>
    <defs></defs>
    <g id="Page-1" stroke="none" stroke-width="1" fill="none" fill-rule="evenodd">
        <g id="quality" fill="#013622">
            <g id="hd" transform="translate(8.000000, 15.000000)">
                <path d="M2.79907692,0.125230769 L0.514461538,11 L2.90569231,11 L3.89569231,6.30892308 L8.29738462,6.30892308 L7.30738462,11 L9.71384615,11 L12.0136923,0.125230769 L9.60723077,0.125230769 L8.72384615,4.29846154 L4.32215385,4.29846154 L5.20553846,0.125230769 L2.79907692,0.125230769 Z M14.6029231,8.98953846 L16.0650769,2.13569231 L17.8623077,2.13569231 C18.2887714,2.13569231 18.6517677,2.19915321 18.9513077,2.32607692 C19.2508477,2.45300063 19.497076,2.6332296 19.69,2.86676923 C19.882924,3.10030886 20.022538,3.3769984 20.1088462,3.69684615 C20.1951543,4.01669391 20.2383077,4.3746134 20.2383077,4.77061538 C20.2383077,5.34938751 20.1545393,5.89261285 19.987,6.40030769 C19.8194607,6.90800254 19.5757708,7.3547673 19.2559231,7.74061538 C18.9360753,8.12646347 18.5400793,8.43107581 18.0679231,8.65446154 C17.5957669,8.87784727 17.05508,8.98953846 16.4458462,8.98953846 L14.6029231,8.98953846 Z M14.0850769,0.125230769 L11.8004615,11 L16.3392308,11 C17.3850822,11 18.3014576,10.8324632 19.0883846,10.4973846 C19.8753116,10.162306 20.5302282,9.6977722 21.0531538,9.10376923 C21.5760795,8.50976626 21.9695371,7.80661945 22.2335385,6.99430769 C22.4975398,6.18199594 22.6295385,5.30369703 22.6295385,4.35938462 C22.6295385,3.00891632 22.2436962,1.96561907 21.472,1.22946154 C20.7003038,0.493304012 19.5478538,0.125230769 18.0146154,0.125230769 L14.0850769,0.125230769 Z" id="HD"></path>
            </g>
        </g>
    </g>
</svg>