<?xml version="1.0" encoding="UTF-8" standalone="no"?>
<svg width="40px" height="40px" viewBox="0 0 40 40" version="1.1" xmlns="http://www.w3.org/2000/svg" xmlns:xlink="http://www.w3.org/1999/xlink">
    <!-- Generator: Sketch 3.6.1 (26313) - http://www.bohemiancoding.com/sketch -->
    <title>quality-hover</title>
    <desc>Created with Sketch.</desc>
    <defs></defs>
    <g id="Page-1" stroke="none" stroke-width="1" fill="none" fill-rule="evenodd">
        <g id="quality-hover">
            <g id="hd-hover">
                <rect id="Rectangle-path" fill="#1EC95B" x="0" y="0" width="40" height="40"></rect>
                <path d="M11.3109244,15 L9,26 L11.4187675,26 L12.4201681,21.254902 L16.872549,21.254902 L15.8711485,26 L18.3053221,26 L20.6316527,15 L18.197479,15 L17.3039216,19.2212885 L12.8515406,19.2212885 L13.745098,15 L11.3109244,15 Z M23.2507003,23.9663866 L24.7296919,17.0336134 L26.547619,17.0336134 C26.9789938,17.0336134 27.3461703,17.0978051 27.6491597,17.2261905 C27.952149,17.3545758 28.2012128,17.5368802 28.3963585,17.7731092 C28.5915042,18.0093382 28.732726,18.2892141 28.820028,18.6127451 C28.90733,18.9362761 28.9509804,19.2983173 28.9509804,19.6988796 C28.9509804,20.2843167 28.8662473,20.8337976 28.6967787,21.3473389 C28.5273101,21.8608803 28.2808139,22.3127898 27.9572829,22.7030812 C27.6337519,23.0933726 27.2331957,23.4014928 26.7556022,23.627451 C26.2780088,23.8534092 25.7310955,23.9663866 25.1148459,23.9663866 L23.2507003,23.9663866 Z M22.7268908,15 L20.4159664,26 L25.0070028,26 C26.0648979,26 26.9918261,25.8305339 27.7878151,25.4915966 C28.5838042,25.1526594 29.2462625,24.6827761 29.7752101,24.0819328 C30.3041576,23.4810894 30.7021462,22.7698454 30.9691877,21.9481793 C31.2362292,21.1265132 31.3697479,20.2381 31.3697479,19.2829132 C31.3697479,17.9168933 30.9794624,16.8615817 30.1988796,16.1169468 C29.4182968,15.3723119 28.2525754,15 26.7016807,15 L22.7268908,15 Z" id="HD" fill="#FFFFFF"></path>
            </g>
        </g>
    </g>
</svg>