<svg width="40" height="40" viewBox="0 0 40 40" fill="none" xmlns="http://www.w3.org/2000/svg">
<path fill-rule="evenodd" clip-rule="evenodd" d="M9 14H31V26H9V14ZM12.2926 17.1818V23H13.3466V20.8693H14.4191L15.5625 23H16.7386L15.4802 20.6966C15.5181 20.6813 15.555 20.665 15.5909 20.6477C15.8977 20.4981 16.1297 20.2869 16.2869 20.0142C16.446 19.7396 16.5256 19.4157 16.5256 19.0426C16.5256 18.6714 16.447 18.3466 16.2898 18.0682C16.1345 17.7879 15.9044 17.5701 15.5994 17.4148C15.2964 17.2595 14.9214 17.1818 14.4744 17.1818H12.2926ZM13.3466 19.9943H14.3182C14.5795 19.9943 14.7936 19.9583 14.9602 19.8864C15.1269 19.8125 15.25 19.7055 15.3295 19.5653C15.411 19.4233 15.4517 19.2491 15.4517 19.0426C15.4517 18.8362 15.411 18.66 15.3295 18.5142C15.2481 18.3665 15.1241 18.2547 14.9574 18.179C14.7907 18.1013 14.5758 18.0625 14.3125 18.0625H13.3466V19.9943ZM18.1861 22.8125C18.5043 22.9943 18.8821 23.0852 19.3196 23.0852C19.6586 23.0852 19.9598 23.0341 20.223 22.9318C20.4863 22.8277 20.7022 22.6818 20.8707 22.4943C21.0412 22.3049 21.1567 22.0833 21.2173 21.8295L20.2571 21.7216C20.2116 21.8447 20.1444 21.9479 20.0554 22.0312C19.9664 22.1146 19.8613 22.178 19.7401 22.2216C19.6188 22.2633 19.4834 22.2841 19.3338 22.2841C19.1103 22.2841 18.9152 22.2367 18.7486 22.142C18.5819 22.0455 18.4522 21.9072 18.3594 21.7273C18.2697 21.5516 18.2234 21.3423 18.2203 21.0994H21.2599V20.7841C21.2599 20.4015 21.2069 20.072 21.1009 19.7955C20.9948 19.517 20.849 19.2879 20.6634 19.108C20.4796 18.928 20.2675 18.7955 20.027 18.7102C19.7884 18.6231 19.5346 18.5795 19.2656 18.5795C18.849 18.5795 18.4863 18.6752 18.1776 18.8665C17.8688 19.0559 17.6283 19.321 17.456 19.6619C17.2855 20.0009 17.2003 20.3949 17.2003 20.8438C17.2003 21.3002 17.2855 21.697 17.456 22.0341C17.6264 22.3693 17.8698 22.6288 18.1861 22.8125ZM18.2223 20.4062C18.2322 20.2353 18.276 20.0771 18.3537 19.9318C18.4427 19.767 18.5668 19.6345 18.7259 19.5341C18.8849 19.4318 19.0696 19.3807 19.2798 19.3807C19.4768 19.3807 19.6491 19.4252 19.7969 19.5142C19.9465 19.6032 20.063 19.7254 20.1463 19.8807C20.2296 20.0341 20.2723 20.2093 20.2741 20.4062H18.2223ZM22.6385 22.9403C22.8601 23.0388 23.1091 23.0881 23.3857 23.0881C23.6129 23.0881 23.8108 23.0568 23.9794 22.9943C24.1499 22.9299 24.291 22.8456 24.4027 22.7415C24.5163 22.6354 24.6044 22.5218 24.6669 22.4006H24.701V23H25.6896V20.0795C25.6896 19.7898 25.6366 19.5483 25.5305 19.3551C25.4264 19.1619 25.2881 19.0095 25.1158 18.8977C24.9434 18.7841 24.7531 18.7027 24.5447 18.6534C24.3364 18.6042 24.1271 18.5795 23.9169 18.5795C23.612 18.5795 23.3336 18.625 23.0817 18.7159C22.8298 18.8049 22.6167 18.9394 22.4425 19.1193C22.2682 19.2973 22.1432 19.5189 22.0675 19.7841L23.0277 19.9205C23.0788 19.7708 23.1773 19.6411 23.3232 19.5312C23.4709 19.4214 23.6707 19.3665 23.9226 19.3665C24.1612 19.3665 24.344 19.4252 24.4709 19.5426C24.5978 19.66 24.6612 19.8258 24.6612 20.0398V20.0568C24.6612 20.1553 24.6243 20.2282 24.5504 20.2756C24.4785 20.321 24.3629 20.3551 24.2038 20.3778C24.0447 20.3987 23.8374 20.4223 23.5817 20.4489C23.3696 20.4716 23.1641 20.5085 22.9652 20.5597C22.7682 20.6089 22.5911 20.6818 22.4339 20.7784C22.2768 20.875 22.1527 21.0038 22.0618 21.1648C21.9709 21.3258 21.9254 21.5294 21.9254 21.7756C21.9254 22.0616 21.9889 22.3021 22.1158 22.4972C22.2446 22.6922 22.4188 22.84 22.6385 22.9403ZM24.1896 22.2102C24.0381 22.2917 23.8591 22.3324 23.6527 22.3324C23.4387 22.3324 23.2625 22.2841 23.1243 22.1875C22.986 22.0909 22.9169 21.9479 22.9169 21.7585C22.9169 21.6259 22.9519 21.518 23.022 21.4347C23.0921 21.3494 23.1877 21.2831 23.3089 21.2358C23.4302 21.1884 23.5675 21.1544 23.7209 21.1335C23.7891 21.1241 23.8696 21.1127 23.9624 21.0994C24.0552 21.0862 24.1489 21.071 24.2436 21.054C24.3383 21.0369 24.4235 21.017 24.4993 20.9943C24.5769 20.9716 24.6319 20.947 24.6641 20.9205V21.4347C24.6641 21.5956 24.6224 21.7443 24.5391 21.8807C24.4576 22.017 24.3411 22.1269 24.1896 22.2102ZM27.7521 23V17.1818H26.7237V23H27.7521Z" fill="white"/>
</svg>
