<svg width="40" height="40" viewBox="0 0 40 40" fill="none" xmlns="http://www.w3.org/2000/svg">
<path fill-rule="evenodd" clip-rule="evenodd" d="M6 12H34V28H6V12ZM7.8608 15.2727V24H9.44176V20.804H11.0505L12.7656 24H14.5298L12.6422 20.5449C12.699 20.522 12.7543 20.4975 12.8082 20.4716C13.2685 20.2472 13.6165 19.9304 13.8523 19.5213C14.0909 19.1094 14.2102 18.6236 14.2102 18.0639C14.2102 17.5071 14.0923 17.0199 13.8565 16.6023C13.6236 16.1818 13.2784 15.8551 12.821 15.6222C12.3665 15.3892 11.804 15.2727 11.1335 15.2727H7.8608ZM9.44176 19.4915H10.8991C11.2912 19.4915 11.6122 19.4375 11.8622 19.3295C12.1122 19.2188 12.2969 19.0582 12.4162 18.848C12.5384 18.6349 12.5994 18.3736 12.5994 18.0639C12.5994 17.7543 12.5384 17.4901 12.4162 17.2713C12.294 17.0497 12.108 16.8821 11.858 16.7685C11.608 16.652 11.2855 16.5938 10.8906 16.5938H9.44176V19.4915ZM16.701 23.7188C17.1783 23.9915 17.745 24.1278 18.4013 24.1278C18.9098 24.1278 19.3615 24.0511 19.7564 23.8977C20.1513 23.7415 20.4751 23.5227 20.728 23.2415C20.9837 22.9574 21.157 22.625 21.2479 22.2443L19.8075 22.0824C19.7393 22.267 19.6385 22.4219 19.505 22.5469C19.3714 22.6719 19.2138 22.767 19.032 22.8324C18.8501 22.8949 18.647 22.9261 18.4226 22.9261C18.0874 22.9261 17.7947 22.8551 17.5447 22.7131C17.2947 22.5682 17.1001 22.3608 16.9609 22.0909C16.8264 21.8274 16.7569 21.5135 16.7524 21.1491H21.3118V20.6761C21.3118 20.1023 21.2322 19.608 21.0732 19.1932C20.9141 18.7756 20.6953 18.4318 20.4169 18.1619C20.1413 17.892 19.8232 17.6932 19.4624 17.5653C19.1044 17.4347 18.7237 17.3693 18.3203 17.3693C17.6953 17.3693 17.1513 17.5128 16.6882 17.7997C16.2251 18.0838 15.8643 18.4815 15.6058 18.9929C15.3501 19.5014 15.2223 20.0923 15.2223 20.7656C15.2223 21.4503 15.3501 22.0455 15.6058 22.5511C15.8615 23.054 16.2266 23.4432 16.701 23.7188ZM16.7553 20.1094C16.7701 19.8529 16.8358 19.6157 16.9524 19.3977C17.0859 19.1506 17.272 18.9517 17.5107 18.8011C17.7493 18.6477 18.0263 18.571 18.3416 18.571C18.6371 18.571 18.8956 18.6378 19.1172 18.7713C19.3416 18.9048 19.5163 19.0881 19.6413 19.321C19.7663 19.5511 19.8303 19.8139 19.8331 20.1094H16.7553ZM23.3796 23.9105C23.712 24.0582 24.0856 24.1321 24.5004 24.1321C24.8413 24.1321 25.1381 24.0852 25.391 23.9915C25.6467 23.8949 25.8583 23.7685 26.0259 23.6122C26.1964 23.4531 26.3285 23.2827 26.4222 23.1009H26.4734V24H27.9563V19.6193C27.9563 19.1847 27.8768 18.8224 27.7177 18.5327C27.5614 18.2429 27.354 18.0142 27.0955 17.8466C26.837 17.6761 26.5515 17.554 26.239 17.4801C25.9265 17.4062 25.6126 17.3693 25.2972 17.3693C24.8398 17.3693 24.4222 17.4375 24.0444 17.5739C23.6665 17.7074 23.3469 17.9091 23.0856 18.179C22.8242 18.446 22.6367 18.7784 22.5231 19.1761L23.9634 19.3807C24.0401 19.1562 24.1879 18.9616 24.4066 18.7969C24.6282 18.6321 24.9279 18.5497 25.3058 18.5497C25.6637 18.5497 25.9379 18.6378 26.1282 18.8139C26.3185 18.9901 26.4137 19.2386 26.4137 19.5597V19.5852C26.4137 19.733 26.3583 19.8423 26.2475 19.9134C26.1396 19.9815 25.9663 20.0327 25.7276 20.0668C25.489 20.098 25.1779 20.1335 24.7944 20.1733C24.4762 20.2074 24.168 20.2628 23.8697 20.3395C23.5742 20.4134 23.3086 20.5227 23.0728 20.6676C22.837 20.8125 22.6509 21.0057 22.5146 21.2472C22.3782 21.4886 22.31 21.794 22.31 22.1634C22.31 22.5923 22.4052 22.9531 22.5955 23.2457C22.7887 23.5384 23.0501 23.7599 23.3796 23.9105ZM25.7063 22.8153C25.479 22.9375 25.2106 22.9986 24.9009 22.9986C24.5799 22.9986 24.3157 22.9261 24.1083 22.7812C23.9009 22.6364 23.7972 22.4219 23.7972 22.1378C23.7972 21.9389 23.8498 21.777 23.9549 21.652C24.06 21.5241 24.2035 21.4247 24.3853 21.3537C24.5671 21.2827 24.7731 21.2315 25.0032 21.2003C25.1055 21.1861 25.2262 21.169 25.3654 21.1491C25.5046 21.1293 25.6452 21.1065 25.7873 21.081C25.9293 21.0554 26.0572 21.0256 26.1708 20.9915C26.2873 20.9574 26.3697 20.9205 26.418 20.8807V21.652C26.418 21.8935 26.3555 22.1165 26.2305 22.321C26.1083 22.5256 25.9336 22.6903 25.7063 22.8153ZM31.0501 24V15.2727H29.5075V24H31.0501Z" fill="white"/>
</svg>
