<svg width="40" height="40" viewBox="0 0 40 40" fill="none" xmlns="http://www.w3.org/2000/svg">
<path d="M20 28.125C20.9722 28.125 21.8828 27.9403 22.7319 27.5708C23.581 27.2014 24.3199 26.7023 24.9485 26.0735C25.5773 25.4449 26.0764 24.706 26.4458 23.8569C26.8153 23.0078 27 22.0972 27 21.125H25.5C25.5 22.6389 24.9618 23.934 23.8854 25.0104C22.809 26.0868 21.5139 26.625 20 26.625C18.4861 26.625 17.191 26.0868 16.1146 25.0104C15.0382 23.934 14.5 22.6389 14.5 21.125C14.5 19.6111 15.0382 18.316 16.1146 17.2396C17.191 16.1632 18.4888 15.625 20.0081 15.625H20.125L19.0625 16.6875L20.125 17.75L23 14.875L20.125 12L19.0625 13.0625L20.1458 14.125H20C19.0278 14.125 18.1172 14.3097 17.2681 14.6792C16.419 15.0486 15.6801 15.5477 15.0515 16.1765C14.4227 16.8051 13.9236 17.544 13.5542 18.3931C13.1847 19.2422 13 20.1528 13 21.125C13 22.0972 13.1847 23.0078 13.5542 23.8569C13.9236 24.706 14.4227 25.4449 15.0515 26.0735C15.6801 26.7023 16.419 27.2014 17.2681 27.5708C18.1172 27.9403 19.0278 28.125 20 28.125Z" fill="black"/>
</svg>
