<?xml version="1.0" encoding="UTF-8" standalone="no"?>
<svg width="40px" height="40px" viewBox="0 0 40 40" version="1.1" xmlns="http://www.w3.org/2000/svg" xmlns:xlink="http://www.w3.org/1999/xlink">
    <!-- Generator: Sketch 3.6.1 (26313) - http://www.bohemiancoding.com/sketch -->
    <title>share-active</title>
    <desc>Created with Sketch.</desc>
    <defs></defs>
    <g id="Page-1" stroke="none" stroke-width="1" fill="none" fill-rule="evenodd">
        <g id="share-active" fill="#1EC95B">
            <g transform="translate(11.000000, 11.000000)" id="Share">
                <path d="M13.5714286,10.2857143 C14.5610169,10.2857143 15.4036424,10.6335531 16.0993304,11.3292411 C16.7950184,12.0249291 17.1428571,12.8675546 17.1428571,13.8571429 C17.1428571,14.8467311 16.7950184,15.6893566 16.0993304,16.3850446 C15.4036424,17.0807326 14.5610169,17.4285714 13.5714286,17.4285714 C12.5818403,17.4285714 11.7392148,17.0807326 11.0435268,16.3850446 C10.3478388,15.6893566 10,14.8467311 10,13.8571429 C10,13.7678567 10.0074404,13.6413699 10.0223214,13.4776786 L6.00446429,11.46875 C5.31993705,12.1086342 4.50893326,12.4285714 3.57142857,12.4285714 C2.58184029,12.4285714 1.73921479,12.0807326 1.04352679,11.3850446 C0.347838783,10.6893566 0,9.84673114 0,8.85714286 C0,7.86755458 0.347838783,7.02492907 1.04352679,6.32924107 C1.73921479,5.63355307 2.58184029,5.28571429 3.57142857,5.28571429 C4.50893326,5.28571429 5.31993705,5.60565156 6.00446429,6.24553571 L10.0223214,4.23660714 C10.0074404,4.07291585 10,3.94642902 10,3.85714286 C10,2.86755458 10.3478388,2.02492907 11.0435268,1.32924107 C11.7392148,0.633553069 12.5818403,0.285714286 13.5714286,0.285714286 C14.5610169,0.285714286 15.4036424,0.633553069 16.0993304,1.32924107 C16.7950184,2.02492907 17.1428571,2.86755458 17.1428571,3.85714286 C17.1428571,4.84673114 16.7950184,5.68935664 16.0993304,6.38504464 C15.4036424,7.08073265 14.5610169,7.42857143 13.5714286,7.42857143 C12.6339239,7.42857143 11.8229201,7.10863415 11.1383929,6.46875 L7.12053571,8.47767857 C7.13541674,8.64136987 7.14285714,8.7678567 7.14285714,8.85714286 C7.14285714,8.94642902 7.13541674,9.07291585 7.12053571,9.23660714 L11.1383929,11.2455357 C11.8229201,10.6056516 12.6339239,10.2857143 13.5714286,10.2857143 L13.5714286,10.2857143 Z"></path>
            </g>
        </g>
    </g>
</svg>