<?xml version="1.0" encoding="UTF-8" standalone="no"?>
<svg width="40px" height="40px" viewBox="0 0 40 40" version="1.1" xmlns="http://www.w3.org/2000/svg" xmlns:xlink="http://www.w3.org/1999/xlink">
    <!-- Generator: Sketch 3.6.1 (26313) - http://www.bohemiancoding.com/sketch -->
    <title>share-hover</title>
    <desc>Created with Sketch.</desc>
    <defs></defs>
    <g id="Page-1" stroke="none" stroke-width="1" fill="none" fill-rule="evenodd">
        <g id="share-hover">
            <g>
                <rect id="Rectangle-path" fill="#1EC95B" x="0" y="0" width="40" height="40"></rect>
                <path d="M27.9042969,22.5957031 C28.6347693,23.3261755 29,24.2109323 29,25.25 C29,26.2890677 28.6347693,27.1738245 27.9042969,27.9042969 C27.1738245,28.6347693 26.2890677,29 25.25,29 C24.2109323,29 23.3261755,28.6347693 22.5957031,27.9042969 C21.8652307,27.1738245 21.5,26.2890677 21.5,25.25 C21.5,25.1562495 21.5078124,25.0234384 21.5234375,24.8515625 L17.3046875,22.7421875 C16.5859339,23.4140659 15.7343799,23.75 14.75,23.75 C13.7109323,23.75 12.8261755,23.3847693 12.0957031,22.6542969 C11.3652307,21.9238245 11,21.0390677 11,20 C11,18.9609323 11.3652307,18.0761755 12.0957031,17.3457031 C12.8261755,16.6152307 13.7109323,16.25 14.75,16.25 C15.7343799,16.25 16.5859339,16.5859341 17.3046875,17.2578125 L21.5234375,15.1484375 C21.5078124,14.9765616 21.5,14.8437505 21.5,14.75 C21.5,13.7109323 21.8652307,12.8261755 22.5957031,12.0957031 C23.3261755,11.3652307 24.2109323,11 25.25,11 C26.2890677,11 27.1738245,11.3652307 27.9042969,12.0957031 C28.6347693,12.8261755 29,13.7109323 29,14.75 C29,15.7890677 28.6347693,16.6738245 27.9042969,17.4042969 C27.1738245,18.1347693 26.2890677,18.5 25.25,18.5 C24.2656201,18.5 23.4140661,18.1640659 22.6953125,17.4921875 L18.4765625,19.6015625 C18.4921876,19.7734384 18.5,19.9062495 18.5,20 C18.5,20.0937505 18.4921876,20.2265616 18.4765625,20.3984375 L22.6953125,22.5078125 C23.4140661,21.8359341 24.2656201,21.5 25.25,21.5 C26.2890677,21.5 27.1738245,21.8652307 27.9042969,22.5957031 Z" id="Share" fill="#FFFFFF"></path>
            </g>
        </g>
    </g>
</svg>