<svg width="40" height="40" viewBox="0 0 40 40" fill="none" xmlns="http://www.w3.org/2000/svg">
<path fill-rule="evenodd" clip-rule="evenodd" d="M9 12H31V28H9V12ZM24.7333 18.1558H24.52L23.4 15.1731C23.36 15.0666 23.2667 15 23.16 15H16.84C16.7333 15 16.6267 15.0666 16.6 15.1731L15.48 18.1558H15.2667C15.12 18.1558 15 18.2756 15 18.4221V19.474C15 19.6205 15.12 19.7403 15.2667 19.7403H19.2133V23.4154H17.8933C17.7467 23.4154 17.6267 23.5353 17.6267 23.6818V24.7337C17.6267 24.8802 17.7467 25 17.8933 25H22.1067C22.2533 25 22.3733 24.8802 22.3733 24.7337V23.6818C22.3733 23.5353 22.2533 23.4154 22.1067 23.4154H20.7867V19.727H24.7333C24.88 19.727 25 19.6072 25 19.4607V18.4088C25 18.2756 24.88 18.1558 24.7333 18.1558Z" fill="black"/>
</svg>
