<?xml version="1.0" encoding="UTF-8" standalone="no"?>
<svg width="30px" height="40px" viewBox="0 0 30 40" version="1.1" xmlns="http://www.w3.org/2000/svg" xmlns:xlink="http://www.w3.org/1999/xlink">
    <!-- Generator: Sketch 3.7.2 (28276) - http://www.bohemiancoding.com/sketch -->
    <title>slides</title>
    <desc>Created with Sketch.</desc>
    <defs></defs>
    <g id="Page-1" stroke="none" stroke-width="1" fill="none" fill-rule="evenodd">
        <g id="slides" fill="#FFFFFF">
            <path d="M4,12 L26,12 L26,28 L4,28 L4,12 Z M19.7333333,18.1557923 L19.52,18.1557923 L18.4,15.1731025 C18.36,15.0665779 18.2666667,15 18.16,15 L11.84,15 C11.7333333,15 11.6266667,15.0665779 11.6,15.1731025 L10.48,18.1557923 L10.2666667,18.1557923 C10.12,18.1557923 10,18.2756325 10,18.4221039 L10,19.4740346 C10,19.620506 10.12,19.7403462 10.2666667,19.7403462 L14.2133333,19.7403462 L14.2133333,23.4154461 L12.8933333,23.4154461 C12.7466667,23.4154461 12.6266667,23.5352863 12.6266667,23.6817577 L12.6266667,24.7336884 C12.6266667,24.8801598 12.7466667,25 12.8933333,25 L17.1066667,25 C17.2533333,25 17.3733333,24.8801598 17.3733333,24.7336884 L17.3733333,23.6817577 C17.3733333,23.5352863 17.2533333,23.4154461 17.1066667,23.4154461 L15.7866667,23.4154461 L15.7866667,19.7270306 L19.7333333,19.7270306 C19.88,19.7270306 20,19.6071904 20,19.460719 L20,18.4087883 C20,18.2756325 19.88,18.1557923 19.7333333,18.1557923 Z" id="Combined-Shape"></path>
        </g>
    </g>
</svg>