<?xml version="1.0" encoding="UTF-8" standalone="no"?>
<svg width="40px" height="40px" viewBox="0 0 40 40" version="1.1" xmlns="http://www.w3.org/2000/svg" xmlns:xlink="http://www.w3.org/1999/xlink">
    <!-- Generator: Sketch 3.6.1 (26313) - http://www.bohemiancoding.com/sketch -->
    <title>subtitle</title>
    <desc>Created with Sketch.</desc>
    <defs></defs>
    <g id="Page-1" stroke="none" stroke-width="1" fill="none" fill-rule="evenodd">
        <g id="subtitle">
            <g id="cc" transform="translate(7.000000, 13.000000)">
                <rect id="Rectangle-86" fill="#013622" x="0" y="0" width="25.9090909" height="15" rx="2"></rect>
                <path d="M10.7089473,6.56052632 L12.2452631,6.56052632 C12.2231578,6.19210342 12.1347376,5.8734224 11.98,5.60447368 C11.8252624,5.33552497 11.6244749,5.11079038 11.3776315,4.93026316 C11.1307882,4.74973594 10.850791,4.6152636 10.5376315,4.52684211 C10.2244721,4.43842061 9.89842272,4.39421053 9.55947365,4.39421053 C9.09526081,4.39421053 8.68263335,4.47157817 8.32157892,4.62631579 C7.96052448,4.78105341 7.65473806,4.99657757 7.40421049,5.27289474 C7.15368293,5.54921191 6.96394798,5.87710337 6.83499997,6.25657895 C6.70605196,6.63605453 6.64157892,7.04683989 6.64157892,7.48894737 C6.64157892,7.91631793 6.71157822,8.30868242 6.85157892,8.66605263 C6.99157962,9.02342284 7.18684082,9.33105134 7.43736839,9.58894737 C7.68789596,9.84684339 7.99184029,10.0476309 8.34921049,10.1913158 C8.7065807,10.3350007 9.0989452,10.4068421 9.52631576,10.4068421 C10.2852669,10.4068421 10.9078923,10.2078967 11.3942105,9.81 C11.8805287,9.41210327 12.1752626,8.83368801 12.278421,8.07473684 L10.7642105,8.07473684 C10.7126313,8.42842282 10.5855273,8.71026211 10.3828947,8.92026316 C10.1802621,9.13026421 9.89105448,9.23526316 9.51526313,9.23526316 C9.27210402,9.23526316 9.06579029,9.18000055 8.89631576,9.06947368 C8.72684123,8.95894682 8.59236889,8.81710613 8.49289471,8.64394737 C8.39342052,8.47078861 8.32157914,8.27736949 8.27736839,8.06368421 C8.23315764,7.84999893 8.2110526,7.64000103 8.2110526,7.43368421 C8.2110526,7.21999893 8.23315764,7.00447477 8.27736839,6.78710526 C8.32157914,6.56973576 8.3971047,6.37079038 8.50394734,6.19026316 C8.61078998,6.00973594 8.74894649,5.86236899 8.91842102,5.74815789 C9.08789555,5.6339468 9.29789345,5.57684211 9.54842102,5.57684211 C10.2189507,5.57684211 10.6057889,5.90473356 10.7089473,6.56052632 L10.7089473,6.56052632 Z M17.5136842,6.56052632 L19.05,6.56052632 C19.0278946,6.19210342 18.9394745,5.8734224 18.7847368,5.60447368 C18.6299992,5.33552497 18.4292118,5.11079038 18.1823684,4.93026316 C17.9355251,4.74973594 17.6555279,4.6152636 17.3423684,4.52684211 C17.029209,4.43842061 16.7031596,4.39421053 16.3642105,4.39421053 C15.8999977,4.39421053 15.4873702,4.47157817 15.1263158,4.62631579 C14.7652614,4.78105341 14.4594749,4.99657757 14.2089474,5.27289474 C13.9584198,5.54921191 13.7686849,5.87710337 13.6397368,6.25657895 C13.5107888,6.63605453 13.4463158,7.04683989 13.4463158,7.48894737 C13.4463158,7.91631793 13.5163151,8.30868242 13.6563158,8.66605263 C13.7963165,9.02342284 13.9915777,9.33105134 14.2421053,9.58894737 C14.4926328,9.84684339 14.7965772,10.0476309 15.1539474,10.1913158 C15.5113176,10.3350007 15.9036821,10.4068421 16.3310526,10.4068421 C17.0900038,10.4068421 17.7126291,10.2078967 18.1989474,9.81 C18.6852656,9.41210327 18.9799995,8.83368801 19.0831579,8.07473684 L17.5689474,8.07473684 C17.5173682,8.42842282 17.3902642,8.71026211 17.1876316,8.92026316 C16.984999,9.13026421 16.6957914,9.23526316 16.32,9.23526316 C16.0768409,9.23526316 15.8705272,9.18000055 15.7010526,9.06947368 C15.5315781,8.95894682 15.3971058,8.81710613 15.2976316,8.64394737 C15.1981574,8.47078861 15.126316,8.27736949 15.0821053,8.06368421 C15.0378945,7.84999893 15.0157895,7.64000103 15.0157895,7.43368421 C15.0157895,7.21999893 15.0378945,7.00447477 15.0821053,6.78710526 C15.126316,6.56973576 15.2018416,6.37079038 15.3086842,6.19026316 C15.4155269,6.00973594 15.5536834,5.86236899 15.7231579,5.74815789 C15.8926324,5.6339468 16.1026303,5.57684211 16.3531579,5.57684211 C17.0236876,5.57684211 17.4105258,5.90473356 17.5136842,6.56052632 L17.5136842,6.56052632 Z" fill="#FFFFFF"></path>
            </g>
        </g>
    </g>
</svg>