<?xml version="1.0" encoding="UTF-8" standalone="no"?>
<svg width="40px" height="40px" viewBox="0 0 40 40" version="1.1" xmlns="http://www.w3.org/2000/svg" xmlns:xlink="http://www.w3.org/1999/xlink">
    <!-- Generator: Sketch 39.1 (31720) - http://www.bohemiancoding.com/sketch -->
    <title>twitter-dark</title>
    <desc>Created with Sketch.</desc>
    <defs></defs>
    <g id="Eve" stroke="none" stroke-width="1" fill="none" fill-rule="evenodd">
        <g id="twitter-dark" fill="#333333">
            <path d="M34.1428571,11.7142857 C33.3452341,12.8809582 32.380958,13.8749959 31.25,14.6964286 C31.2619048,14.8630961 31.2678571,15.1130936 31.2678571,15.4464286 C31.2678571,16.9940554 31.0416689,18.5386828 30.5892857,20.0803571 C30.1369025,21.6220315 29.4494094,23.1011834 28.5267857,24.5178571 C27.6041621,25.9345309 26.5059587,27.1874946 25.2321429,28.2767857 C23.958327,29.3660769 22.422628,30.2351158 20.625,30.8839286 C18.827372,31.5327413 16.9047721,31.8571429 14.8571429,31.8571429 C11.6309362,31.8571429 8.67858482,30.9940562 6,29.2678571 C6.41666875,29.3154764 6.88094982,29.3392857 7.39285714,29.3392857 C10.071442,29.3392857 12.4583229,28.5178654 14.5535714,26.875 C13.3035652,26.8511904 12.1845288,26.4672656 11.1964286,25.7232143 C10.2083284,24.9791629 9.52976375,24.0297677 9.16071429,22.875 C9.55357339,22.9345241 9.916665,22.9642857 10.25,22.9642857 C10.7619073,22.9642857 11.2678546,22.8988102 11.7678571,22.7678571 C10.4345171,22.4940462 9.33036152,21.8303624 8.45535714,20.7767857 C7.58035277,19.723209 7.14285714,18.500007 7.14285714,17.1071429 L7.14285714,17.0357143 C7.952385,17.4880975 8.82142393,17.7321427 9.75,17.7678571 C8.96428179,17.244045 8.33928804,16.559528 7.875,15.7142857 C7.41071196,14.8690434 7.17857143,13.9523859 7.17857143,12.9642857 C7.17857143,11.9166614 7.44047357,10.946433 7.96428571,10.0535714 C9.40476911,11.8273898 11.1577278,13.2470185 13.2232143,14.3125 C15.2887008,15.3779815 17.4999882,15.9702375 19.8571429,16.0892857 C19.7619043,15.6369025 19.7142857,15.1964307 19.7142857,14.7678571 C19.7142857,13.1726111 20.2767801,11.8125056 21.4017857,10.6875 C22.5267913,9.56249437 23.8868968,9 25.4821429,9 C27.1488179,9 28.5535657,9.60713679 29.6964286,10.8214286 C30.9940541,10.5714273 32.21428,10.1071462 33.3571429,9.42857143 C32.9166645,10.7976259 32.0714348,11.8571391 30.8214286,12.6071429 C31.928577,12.4880946 33.0357088,12.1904786 34.1428571,11.7142857 L34.1428571,11.7142857 Z" id="twitter"></path>
        </g>
    </g>
</svg>