<?xml version="1.0" encoding="UTF-8" standalone="no"?>
<svg width="40px" height="40px" viewBox="0 0 40 40" version="1.1" xmlns="http://www.w3.org/2000/svg" xmlns:xlink="http://www.w3.org/1999/xlink">
    <!-- Generator: Sketch 3.6.1 (26313) - http://www.bohemiancoding.com/sketch -->
    <title>twitter-hover</title>
    <desc>Created with Sketch.</desc>
    <defs></defs>
    <g id="Page-1" stroke="none" stroke-width="1" fill="none" fill-rule="evenodd">
        <g id="twitter-hover">
            <g>
                <rect id="Rectangle-path" fill="#1EC95B" x="0" y="0" width="40" height="40"></rect>
                <path d="M27.5703125,16.7382812 C27.578125,16.8476568 27.5820312,17.0117177 27.5820312,17.2304688 C27.5820312,18.2460988 27.4335952,19.2597606 27.1367188,20.2714844 C26.8398423,21.2832082 26.3886749,22.2539016 25.7832031,23.1835938 C25.1777313,24.1132859 24.4570354,24.9355433 23.6210937,25.6503906 C22.7851521,26.3652379 21.7773496,26.9355447 20.5976563,27.3613281 C19.4179629,27.7871115 18.1562567,28 16.8125,28 C14.6953019,28 12.7578213,27.4335994 11,26.3007812 C11.2734389,26.3320314 11.5781233,26.3476562 11.9140625,26.3476562 C13.6718838,26.3476562 15.2382744,25.8085991 16.6132812,24.7304688 C15.7929646,24.7148437 15.058597,24.4628931 14.4101563,23.9746094 C13.7617155,23.4863257 13.3164075,22.863285 13.0742188,22.1054688 C13.3320325,22.1445314 13.5703114,22.1640625 13.7890625,22.1640625 C14.1250017,22.1640625 14.4570296,22.1210942 14.7851563,22.0351562 C13.9101519,21.8554679 13.1855497,21.4199253 12.6113281,20.7285156 C12.0371065,20.0371059 11.75,19.2343796 11.75,18.3203125 L11.75,18.2734375 C12.2812527,18.570314 12.8515595,18.7304686 13.4609375,18.7539062 C12.9453099,18.4101545 12.5351578,17.9609403 12.2304688,17.40625 C11.9257797,16.8515597 11.7734375,16.2500032 11.7734375,15.6015625 C11.7734375,14.9140591 11.9453108,14.2773467 12.2890625,13.6914063 C13.2343797,14.8554746 14.3847588,15.7871059 15.7402344,16.4863281 C17.0957099,17.1855504 18.5468673,17.5742184 20.09375,17.6523438 C20.0312497,17.3554673 20,17.0664077 20,16.7851562 C20,15.738276 20.3691369,14.8457068 21.1074219,14.1074219 C21.8457068,13.3691369 22.738276,13 23.7851562,13 C24.8789117,13 25.8007775,13.3984335 26.5507813,14.1953125 C27.402348,14.0312492 28.2031213,13.7265647 28.953125,13.28125 C28.6640611,14.179692 28.1093791,14.8749975 27.2890625,15.3671875 C28.0156286,15.2890621 28.7421839,15.0937516 29.46875,14.78125 C28.9453099,15.5468788 28.3125037,16.1992161 27.5703125,16.7382812 Z" id="Twitter" fill="#FFFFFF"></path>
            </g>
        </g>
    </g>
</svg>