<?xml version="1.0" encoding="UTF-8" standalone="no"?>
<svg width="40px" height="40px" viewBox="0 0 40 40" version="1.1" xmlns="http://www.w3.org/2000/svg" xmlns:xlink="http://www.w3.org/1999/xlink">
    <!-- Generator: Sketch 3.6.1 (26313) - http://www.bohemiancoding.com/sketch -->
    <title>twitter</title>
    <desc>Created with Sketch.</desc>
    <defs></defs>
    <g id="Page-1" stroke="none" stroke-width="1" fill="none" fill-rule="evenodd">
        <g id="twitter" fill="#013622">
            <g transform="translate(11.000000, 13.000000)" id="Twitter">
                <path d="M18.0803571,2.41071429 C17.5818427,3.1398846 16.9791702,3.76115815 16.2723214,4.27455357 C16.2797619,4.37872076 16.2834821,4.5349692 16.2834821,4.74330357 C16.2834821,5.71057031 16.1421145,6.67596244 15.859375,7.63950893 C15.5766355,8.60305541 15.1469523,9.52752533 14.5703125,10.4129464 C13.9936727,11.2983675 13.3072956,12.0814698 12.5111607,12.7622768 C11.7150258,13.4430838 10.755214,13.9862331 9.63169643,14.3917411 C8.50817891,14.7972491 7.30655402,15 6.02678571,15 C4.01040658,15 2.16518694,14.4605709 0.491071429,13.3816964 C0.751489397,13.4114585 1.04166507,13.4263393 1.36160714,13.4263393 C3.03572266,13.4263393 4.52752321,12.9129516 5.83705357,11.8861607 C5.05579967,11.8712797 4.3564019,11.6313267 3.73883929,11.1662946 C3.12127667,10.7012626 2.69717377,10.1078905 2.46651786,9.38616071 C2.7120548,9.42336328 2.93898705,9.44196429 3.14732143,9.44196429 C3.4672635,9.44196429 3.78348058,9.40104208 4.09598214,9.31919643 C3.26264464,9.14806462 2.57254738,8.73326222 2.02566964,8.07477679 C1.47879191,7.41629135 1.20535714,6.65179007 1.20535714,5.78125 L1.20535714,5.73660714 C1.71131205,6.01934665 2.25446138,6.17187489 2.83482143,6.19419643 C2.34374754,5.86681384 1.95312645,5.43899074 1.66294643,4.91071429 C1.37276641,4.38243783 1.22767857,3.8095269 1.22767857,3.19196429 C1.22767857,2.53719911 1.39136741,1.93080636 1.71875,1.37276786 C2.61905212,2.48140435 3.71465128,3.36867227 5.00558036,4.03459821 C6.29650943,4.70052416 7.67856406,5.07068415 9.15178571,5.14508929 C9.09226161,4.86234978 9.0625,4.58705491 9.0625,4.31919643 C9.0625,3.32216763 9.41405898,2.47210173 10.1171875,1.76897321 C10.820316,1.0658447 11.6703819,0.714285714 12.6674107,0.714285714 C13.7090826,0.714285714 14.58705,1.09374621 15.3013393,1.85267857 C16.1123552,1.69642779 16.8749964,1.40625212 17.5892857,0.982142857 C17.3139867,1.8378019 16.7857182,2.49999766 16.0044643,2.96875 C16.696432,2.89434487 17.3883894,2.70833482 18.0803571,2.41071429 L18.0803571,2.41071429 Z"></path>
            </g>
        </g>
    </g>
</svg>