<?xml version="1.0" encoding="UTF-8" standalone="no"?>
<svg width="40px" height="40px" viewBox="0 0 40 40" version="1.1" xmlns="http://www.w3.org/2000/svg" xmlns:xlink="http://www.w3.org/1999/xlink">
    <!-- Generator: Sketch 3.6.1 (26313) - http://www.bohemiancoding.com/sketch -->
    <title>unmute-hover</title>
    <desc>Created with Sketch.</desc>
    <defs></defs>
    <g id="Page-1" stroke="none" stroke-width="1" fill="none" fill-rule="evenodd">
        <g id="unmute-hover">
            <g>
                <rect id="Rectangle-path" fill="#1EC95B" x="0" y="0" width="40" height="40"></rect>
                <path d="M19.1012658,14.7616034 L19.1012658,26.2383966 C19.1012658,26.4212386 19.0344592,26.5794649 18.9008439,26.7130802 C18.7672286,26.8466955 18.6090023,26.9135021 18.4261603,26.9135021 C18.2433184,26.9135021 18.0850921,26.8466955 17.9514768,26.7130802 L14.4388186,23.2004219 L11.6751055,23.2004219 C11.4922635,23.2004219 11.3340372,23.1336153 11.2004219,23 C11.0668066,22.8663847 11,22.7081584 11,22.5253165 L11,18.4746835 C11,18.2918416 11.0668066,18.1336153 11.2004219,18 C11.3340372,17.8663847 11.4922635,17.7995781 11.6751055,17.7995781 L14.4388186,17.7995781 L17.9514768,14.2869198 C18.0850921,14.1533045 18.2433184,14.0864979 18.4261603,14.0864979 C18.6090023,14.0864979 18.7672286,14.1533045 18.9008439,14.2869198 C19.0344592,14.4205351 19.1012658,14.5787614 19.1012658,14.7616034 L19.1012658,14.7616034 Z M23.1518987,20.5 C23.1518987,21.0344612 23.0024628,21.5319949 22.7035865,21.992616 C22.4047102,22.4532372 22.0091445,22.7819962 21.5168776,22.978903 C21.4465538,23.0140649 21.3586503,23.0316456 21.2531646,23.0316456 C21.0703226,23.0316456 20.9120963,22.966597 20.778481,22.8364979 C20.6448657,22.7063988 20.5780591,22.5464145 20.5780591,22.3565401 C20.5780591,22.20886 20.6202527,22.0840371 20.7046414,21.9820675 C20.78903,21.8800979 20.890998,21.7921945 21.0105485,21.7183544 C21.1300991,21.6445144 21.2496478,21.5636432 21.3691983,21.4757384 C21.4887488,21.3878336 21.5907169,21.2630107 21.6751055,21.1012658 C21.7594941,20.939521 21.8016878,20.7391011 21.8016878,20.5 C21.8016878,20.2608989 21.7594941,20.060479 21.6751055,19.8987342 C21.5907169,19.7369893 21.4887488,19.6121664 21.3691983,19.5242616 C21.2496478,19.4363568 21.1300991,19.3554856 21.0105485,19.2816456 C20.890998,19.2078055 20.78903,19.1199021 20.7046414,19.0179325 C20.6202527,18.9159629 20.5780591,18.79114 20.5780591,18.6434599 C20.5780591,18.4535855 20.6448657,18.2936012 20.778481,18.1635021 C20.9120963,18.033403 21.0703226,17.9683544 21.2531646,17.9683544 C21.3586503,17.9683544 21.4465538,17.9859351 21.5168776,18.021097 C22.0091445,18.2109714 22.4047102,18.5379724 22.7035865,19.0021097 C23.0024628,19.466247 23.1518987,19.9655388 23.1518987,20.5 L23.1518987,20.5 Z M25.8523207,20.5 C25.8523207,21.5759547 25.5534488,22.5692641 24.9556962,23.4799578 C24.3579436,24.3906515 23.5668122,25.0534438 22.5822785,25.4683544 C22.4908575,25.5035164 22.402954,25.521097 22.3185654,25.521097 C22.128691,25.521097 21.9669486,25.4542904 21.8333333,25.3206751 C21.699718,25.1870598 21.6329114,25.0288335 21.6329114,24.8459916 C21.6329114,24.5717286 21.7700408,24.3642764 22.0443038,24.2236287 C22.4381173,24.0196896 22.7053439,23.8649794 22.8459916,23.7594937 C23.366388,23.3797449 23.7725021,22.9033081 24.064346,22.3301688 C24.3561899,21.7570295 24.5021097,21.1469793 24.5021097,20.5 C24.5021097,19.8530207 24.3561899,19.2429705 24.064346,18.6698312 C23.7725021,18.0966919 23.366388,17.6202551 22.8459916,17.2405063 C22.7053439,17.1350206 22.4381173,16.9803104 22.0443038,16.7763713 C21.7700408,16.6357236 21.6329114,16.4282714 21.6329114,16.1540084 C21.6329114,15.9711665 21.699718,15.8129402 21.8333333,15.6793249 C21.9669486,15.5457096 22.1251749,15.478903 22.3080169,15.478903 C22.3994379,15.478903 22.4908575,15.4964836 22.5822785,15.5316456 C23.5668122,15.9465562 24.3579436,16.6093485 24.9556962,17.5200422 C25.5534488,18.4307359 25.8523207,19.4240453 25.8523207,20.5 L25.8523207,20.5 Z M28.5527426,20.5 C28.5527426,22.1174483 28.1061929,23.6030171 27.2130802,24.9567511 C26.3199674,26.310485 25.1315123,27.3073104 23.6476793,27.9472574 C23.5562583,27.9824193 23.4648387,28 23.3734177,28 C23.1905757,28 23.0323495,27.9331934 22.8987342,27.7995781 C22.7651189,27.6659628 22.6983122,27.5077365 22.6983122,27.3248945 C22.6983122,27.0717287 22.8354417,26.8642765 23.1097046,26.7025316 C23.1589313,26.6744021 23.2380445,26.6374826 23.3470464,26.5917722 C23.4560484,26.5460617 23.5351615,26.5091422 23.5843882,26.4810127 C23.9078778,26.3052031 24.1962013,26.12588 24.4493671,25.943038 C25.3143503,25.303091 25.9894491,24.5049274 26.4746835,23.5485232 C26.959918,22.592119 27.2025316,21.5759547 27.2025316,20.5 C27.2025316,19.4240453 26.959918,18.407881 26.4746835,17.4514768 C25.9894491,16.4950726 25.3143503,15.696909 24.4493671,15.056962 C24.1962013,14.87412 23.9078778,14.6947969 23.5843882,14.5189873 C23.5351615,14.4908578 23.4560484,14.4539383 23.3470464,14.4082278 C23.2380445,14.3625174 23.1589313,14.3255979 23.1097046,14.2974684 C22.8354417,14.1357235 22.6983122,13.9282713 22.6983122,13.6751055 C22.6983122,13.4922635 22.7651189,13.3340372 22.8987342,13.2004219 C23.0323495,13.0668066 23.1905757,13 23.3734177,13 C23.4648387,13 23.5562583,13.0175807 23.6476793,13.0527426 C25.1315123,13.6926896 26.3199674,14.689515 27.2130802,16.0432489 C28.1061929,17.3969829 28.5527426,18.8825517 28.5527426,20.5 L28.5527426,20.5 Z" id="Sound-On" fill="#FFFFFF"></path>
            </g>
        </g>
    </g>
</svg>