<?xml version="1.0" encoding="UTF-8" standalone="no"?>
<svg width="40px" height="40px" viewBox="0 0 40 40" version="1.1" xmlns="http://www.w3.org/2000/svg" xmlns:xlink="http://www.w3.org/1999/xlink">
    <!-- Generator: Sketch 3.6.1 (26313) - http://www.bohemiancoding.com/sketch -->
    <title>unmute-active</title>
    <desc>Created with Sketch.</desc>
    <defs></defs>
    <g id="Page-1" stroke="none" stroke-width="1" fill="none" fill-rule="evenodd">
        <g id="unmute-active" fill="#1EC95B">
            <g transform="translate(11.000000, 13.000000)" id="Sound-On">
                <path d="M7.85714286,2.05357143 L7.85714286,13.1845238 C7.85714286,13.361856 7.79234936,13.5153143 7.66276042,13.6449033 C7.53317148,13.7744922 7.37971319,13.8392857 7.20238095,13.8392857 C7.02504872,13.8392857 6.87159043,13.7744922 6.74200149,13.6449033 L3.33519345,10.2380952 L0.654761905,10.2380952 C0.477429669,10.2380952 0.323971382,10.1733017 0.19438244,10.0437128 C0.0647934989,9.91412386 0,9.76066557 0,9.58333333 L0,5.6547619 C0,5.47742967 0.0647934989,5.32397138 0.19438244,5.19438244 C0.323971382,5.0647935 0.477429669,5 0.654761905,5 L3.33519345,5 L6.74200149,1.59319196 C6.87159043,1.46360302 7.02504872,1.39880952 7.20238095,1.39880952 C7.37971319,1.39880952 7.53317148,1.46360302 7.66276042,1.59319196 C7.79234936,1.72278091 7.85714286,1.87623919 7.85714286,2.05357143 L7.85714286,2.05357143 Z M11.7857143,7.61904762 C11.7857143,8.13740339 11.6407815,8.61994444 11.3509115,9.06668527 C11.0610415,9.51342609 10.6773957,9.83227831 10.1999628,10.0232515 C10.1317581,10.0573538 10.0465035,10.0744048 9.94419643,10.0744048 C9.76686419,10.0744048 9.61340591,10.0113164 9.48381696,9.88513765 C9.35422802,9.75895894 9.28943452,9.60379556 9.28943452,9.41964286 C9.28943452,9.27641297 9.33035673,9.15535144 9.41220238,9.05645461 C9.49404803,8.95755779 9.59294337,8.87230319 9.70889137,8.80068824 C9.82483937,8.7290733 9.94078563,8.65063907 10.0567336,8.56538318 C10.1726816,8.4801273 10.271577,8.35906576 10.3534226,8.20219494 C10.4352683,8.04532412 10.4761905,7.85094362 10.4761905,7.61904762 C10.4761905,7.38715162 10.4352683,7.19277112 10.3534226,7.0359003 C10.271577,6.87902947 10.1726816,6.75796794 10.0567336,6.67271205 C9.94078563,6.58745617 9.82483937,6.50902194 9.70889137,6.43740699 C9.59294337,6.36579205 9.49404803,6.28053745 9.41220238,6.18164062 C9.33035673,6.0827438 9.28943452,5.96168226 9.28943452,5.81845238 C9.28943452,5.63429967 9.35422802,5.4791363 9.48381696,5.35295759 C9.61340591,5.22677888 9.76686419,5.16369048 9.94419643,5.16369048 C10.0465035,5.16369048 10.1317581,5.1807414 10.1999628,5.21484375 C10.6773957,5.39899646 11.0610415,5.71614358 11.3509115,6.16629464 C11.6407815,6.6164457 11.7857143,7.10069185 11.7857143,7.61904762 L11.7857143,7.61904762 Z M14.4047619,7.61904762 C14.4047619,8.66257962 14.1148963,9.62595665 13.5351562,10.5092076 C12.9554162,11.3924585 12.1881248,12.0352782 11.2332589,12.437686 C11.1445928,12.4717884 11.0593382,12.4888393 10.9774926,12.4888393 C10.7933399,12.4888393 10.6364714,12.4240458 10.5068824,12.2944568 C10.3772935,12.1648679 10.3125,12.0114096 10.3125,11.8340774 C10.3125,11.568079 10.4454972,11.3668782 10.7114955,11.2304688 C11.0934419,11.0326751 11.3526159,10.882627 11.4890253,10.7803199 C11.9937401,10.4120145 12.3876164,9.94993457 12.6706659,9.39406622 C12.9537155,8.83819787 13.0952381,8.24653092 13.0952381,7.61904762 C13.0952381,6.99156432 12.9537155,6.39989737 12.6706659,5.84402902 C12.3876164,5.28816066 11.9937401,4.82608071 11.4890253,4.4577753 C11.3526159,4.35546824 11.0934419,4.20542014 10.7114955,4.00762649 C10.4454972,3.87121708 10.3125,3.67001621 10.3125,3.40401786 C10.3125,3.22668562 10.3772935,3.07322733 10.5068824,2.94363839 C10.6364714,2.81404945 10.7899297,2.74925595 10.9672619,2.74925595 C11.055928,2.74925595 11.1445928,2.76630687 11.2332589,2.80040923 C12.1881248,3.20281699 12.9554162,3.8456367 13.5351562,4.72888765 C14.1148963,5.61213859 14.4047619,6.57551562 14.4047619,7.61904762 L14.4047619,7.61904762 Z M17.0238095,7.61904762 C17.0238095,9.18775586 16.5907161,10.6285587 15.7245164,11.9414993 C14.8583166,13.2544398 13.7056744,14.2212271 12.2665551,14.8418899 C12.1778889,14.8759922 12.0892242,14.8930432 12.000558,14.8930432 C11.8232258,14.8930432 11.6697675,14.8282497 11.5401786,14.6986607 C11.4105896,14.5690718 11.3457961,14.4156135 11.3457961,14.2382813 C11.3457961,13.9927443 11.4787933,13.7915434 11.7447917,13.6346726 C11.792535,13.6073907 11.8692641,13.5715838 11.9749814,13.5272507 C12.0806987,13.4829177 12.1574278,13.4471108 12.2051711,13.4198289 C12.5189128,13.2493171 12.7985479,13.0753977 13.0440848,12.8980655 C13.8830027,12.2774027 14.5377581,11.5032908 15.0083705,10.5757068 C15.478983,9.64812284 15.7142857,8.66257962 15.7142857,7.61904762 C15.7142857,6.57551562 15.478983,5.5899724 15.0083705,4.66238839 C14.5377581,3.73480439 13.8830027,2.96069259 13.0440848,2.34002976 C12.7985479,2.16269753 12.5189128,1.98877813 12.2051711,1.81826637 C12.1574278,1.79098449 12.0806987,1.75517755 11.9749814,1.71084449 C11.8692641,1.66651144 11.792535,1.6307045 11.7447917,1.60342262 C11.4787933,1.4465518 11.3457961,1.24535093 11.3457961,0.999813988 C11.3457961,0.822481752 11.4105896,0.669023465 11.5401786,0.539434524 C11.6697675,0.409845582 11.8232258,0.345052083 12.000558,0.345052083 C12.0892242,0.345052083 12.1778889,0.362103004 12.2665551,0.396205357 C13.7056744,1.01686818 14.8583166,1.98365539 15.7245164,3.29659598 C16.5907161,4.60953657 17.0238095,6.05033938 17.0238095,7.61904762 L17.0238095,7.61904762 Z"></path>
            </g>
        </g>
    </g>
</svg>