<?xml version="1.0" encoding="UTF-8" standalone="no"?>
<svg width="30px" height="40px" viewBox="0 0 30 40" version="1.1" xmlns="http://www.w3.org/2000/svg" xmlns:xlink="http://www.w3.org/1999/xlink">
    <!-- Generator: Sketch 39.1 (31720) - http://www.bohemiancoding.com/sketch -->
    <title>volume-off-dark</title>
    <desc>Created with Sketch.</desc>
    <defs></defs>
    <g id="Eve" stroke="none" stroke-width="1" fill="none" fill-rule="evenodd">
        <g id="volume-off-dark" fill="#333333">
            <path d="M17.2823741,12.165755 L11.7036202,17.4918822 L10.544234,17.4918822 C9.96588886,17.4918822 9.49778079,17.9550476 9.49778079,18.5260037 L9.49778079,21.4503311 C9.49778079,22.0219362 9.96588886,22.4845024 10.544234,22.4845024 L11.7036202,22.4845024 L12.0471624,22.8215043 L8.29600718,26.1974142 C7.97148686,26.5235322 7.90323774,27.1414189 8.14388204,27.5785727 C8.28712031,27.8386882 8.50819353,27.9763847 8.73246203,27.9763847 C8.88288968,27.9763847 9.0365126,27.9142265 9.16756888,27.7828707 L13.2851325,23.6826814 L17.2823741,27.4485149 C17.3438831,27.5082267 17.4166256,27.5481177 17.4859731,27.5931511 L17.4859731,19.6736573 L22.7979213,14.3734417 C23.1230407,14.049221 23.0121546,13.4312844 22.7722592,12.9948295 C22.532264,12.5570266 22.2516288,12.4644135 21.9264595,12.7886343 L17.4859731,17.2172881 L17.4859731,12 C17.4166256,12.0443844 17.3438831,12.1061431 17.2823741,12.165755 L17.2823741,12.165755 Z" id="Shape"></path>
        </g>
    </g>
</svg>