<?xml version="1.0" encoding="UTF-8" standalone="no"?>
<svg width="30px" height="40px" viewBox="0 0 30 40" version="1.1" xmlns="http://www.w3.org/2000/svg" xmlns:xlink="http://www.w3.org/1999/xlink">
    <!-- Generator: Sketch 39.1 (31720) - http://www.bohemiancoding.com/sketch -->
    <title>volume-on</title>
    <desc>Created with Sketch.</desc>
    <defs></defs>
    <g id="Demonic" stroke="none" stroke-width="1" fill="none" fill-rule="evenodd">
        <g id="volume-on" fill="#FFFFFF">
            <path d="M15.4594857,24.4497595 C15.1637952,24.1683166 15.1604952,23.7099309 15.4517333,23.4250309 C16.157619,22.7431881 16.7088238,21.4269595 16.7024857,19.9051881 C16.7088238,18.3827357 16.1570952,17.0649881 15.4517333,16.38545 C15.1604952,16.0997119 15.1637952,15.6406452 15.4594857,15.360669 C15.7547048,15.0792262 16.2296429,15.0820547 16.5210905,15.3663785 C17.5828,16.4176643 18.2000048,18.0612214 18.2050857,19.9051881 C18.2000048,21.7484738 17.5820667,23.3912976 16.5210905,24.4425833 C16.3739524,24.5857928 16.1808762,24.6581833 15.9862286,24.6581833 C15.7964,24.6581833 15.6061,24.5894071 15.4594857,24.4497595 Z M17.9371571,26.2937785 C17.7013905,25.9622071 17.7885524,25.5117309 18.1304952,25.2854452 C19.4710286,24.41105 20.5381857,22.3493881 20.5305381,19.9051881 C20.5381857,17.4596785 19.4726,15.3985404 18.1304952,14.5249309 C17.7885524,14.2986452 17.7013905,13.8460738 17.9371571,13.51665 C18.1722952,13.1864404 18.6395333,13.103469 18.9820524,13.32965 C20.8610095,14.5929738 22.0240238,17.0736309 22.0324048,19.9051881 C22.0240238,22.73465 20.8610095,25.2160404 18.9820524,26.4792595 C18.8514667,26.56595 18.7029667,26.6067547 18.5566143,26.6067547 C18.3178619,26.6067547 18.0822524,26.4971738 17.9371571,26.2937785 Z M20.3835048,28.4085023 C20.1984952,28.0511595 20.3471,27.615769 20.7181667,27.4367309 C22.8050762,26.4520214 24.5086095,23.48155 24.496719,19.9051881 C24.5086095,16.3273595 22.8050762,13.3576738 20.7181667,12.3736976 C20.3478333,12.1939262 20.1984952,11.759269 20.3835048,11.4019262 C20.5687762,11.0423833 21.0209286,10.8977071 21.3912095,11.0767452 C24.1861,12.4545738 25.9879,15.9134976 26,19.9051881 C25.9879,23.8947309 24.1861,27.3551214 21.3912095,28.73295 C21.2837762,28.7844404 21.1695857,28.8095309 21.0558667,28.8095309 C20.7803429,28.8095309 20.5152429,28.6627071 20.3835048,28.4085023 Z M12.1744143,11.9963976 L6.84580476,17.2857214 L5.06438095,17.2857214 C4.47698095,17.2857214 4,17.7447357 4,18.3112881 L4,21.4969404 C4,22.064069 4.47698095,22.5238166 5.06438095,22.5238166 L6.84580476,22.5238166 L12.1744143,27.8124071 C12.2373238,27.8725404 12.3105,27.60215 12.3809524,27.646569 L12.3809524,12.1631262 C12.3105,12.2075452 12.2373238,11.9363166 12.1744143,11.9963976 Z" id="Combined-Shape"></path>
        </g>
    </g>
</svg>