<svg width="40" height="40" viewBox="0 0 40 40" fill="none" xmlns="http://www.w3.org/2000/svg">
<path d="M14.5575 13.5L13.5 14.5575L16.77 17.8275L16.5525 18.0525H13.5525V22.5525H16.5525L20.3025 26.3025V21.36L23.4375 24.495C22.95 24.8625 22.4025 25.155 21.8025 25.3275V26.8725C22.8075 26.6475 23.73 26.1825 24.51 25.56L26.0475 27.0975L27.105 26.04L14.5575 13.5ZM25.5525 20.3025C25.5525 20.9175 25.44 21.51 25.245 22.0575L26.3925 23.205C26.8125 22.3275 27.0525 21.345 27.0525 20.3025C27.0525 17.0925 24.81 14.4075 21.8025 13.725V15.27C23.97 15.915 25.5525 17.925 25.5525 20.3025ZM20.3025 14.3025L18.8925 15.7125L20.3025 17.1225V14.3025ZM23.6775 20.3025C23.6775 18.975 22.9125 17.835 21.8025 17.28V18.6225L23.6625 20.4825C23.67 20.4225 23.6775 20.3625 23.6775 20.3025Z" fill="black"/>
</svg>
