<?xml version="1.0" encoding="UTF-8" standalone="no"?>
<svg width="30px" height="40px" viewBox="0 0 30 40" version="1.1" xmlns="http://www.w3.org/2000/svg" xmlns:xlink="http://www.w3.org/1999/xlink">
    <!-- Generator: Sketch 39.1 (31720) - http://www.bohemiancoding.com/sketch -->
    <title>volume-on-dark</title>
    <desc>Created with Sketch.</desc>
    <defs></defs>
    <g id="Eve" stroke="none" stroke-width="1" fill="none" fill-rule="evenodd">
        <g id="volume-on-dark" fill="#000000">
            <path d="M6,16.2999846 L6,22.2999842 L7.00007994,22.2999842 L11.9999996,26.131764 L11.9999996,12.4685048 L7.00007994,16.2999846 L6,16.2999846 L6,16.2999846 Z M15.2481594,15.1924447 C14.9552395,14.8886647 14.4782395,14.8886647 14.1841195,15.1924447 C13.8912595,15.4953847 13.8912595,15.9871446 14.1841195,16.2902646 L14.1841195,16.2902646 C15.1508994,17.2884846 15.6322794,18.5889245 15.6322794,19.8965644 C15.6322794,21.2072043 15.1524594,22.5103442 14.1841195,23.5097642 C13.8912595,23.8134842 13.8912595,24.3053041 14.1841195,24.6083041 C14.3311195,24.7601641 14.5239595,24.8356441 14.7167995,24.8356441 C14.9095795,24.8356441 15.1024194,24.7601641 15.2481594,24.6083041 C16.5076794,23.3084642 17.1375593,21.5984643 17.1375593,19.8965644 C17.1375593,18.1952645 16.5049194,16.4885646 15.2481594,15.1924447 L15.2481594,15.1924447 Z M17.6231393,12.7329248 C17.3303993,12.4299849 16.8533393,12.4299849 16.5591594,12.7329248 C16.2664794,13.0360448 16.2664794,13.5278048 16.5605994,13.8314648 L16.5591594,13.8307448 C18.1816193,15.5065447 18.9942592,17.6939645 18.9942592,19.8875644 C18.9927592,22.0920243 18.1858193,24.2891041 16.5591594,25.969224 C16.2664794,26.273004 16.2664794,26.764344 16.5605994,27.067764 C16.7062793,27.2192639 16.8990593,27.2951039 17.0917793,27.2951039 C17.2846793,27.2951039 17.4774593,27.2192639 17.6231393,27.067764 C19.5426592,25.0863841 20.4995391,22.4820242 20.4980391,19.8875644 C20.4995391,17.2988046 19.5355192,14.7059047 17.6231393,12.7329248 L17.6231393,12.7329248 Z M20.1195591,10.227745 C19.8268792,9.924085 19.3499992,9.924085 19.0570792,10.227745 C18.7628392,10.530805 18.7628392,11.0225649 19.0570792,11.3255649 C21.3479991,13.6928648 22.494719,16.7870646 22.496159,19.8887644 C22.494719,22.9989242 21.3536391,26.101884 19.0570792,28.4744639 C18.7628392,28.7777638 18.7628392,29.2691038 19.0570792,29.5725238 C19.2026992,29.7243838 19.3954192,29.7999838 19.5882592,29.7999838 C19.7810992,29.7999838 19.9739391,29.7243838 20.1195591,29.5725238 C22.708919,26.900364 24.0013789,23.3899442 23.9999989,19.8887644 C24.0013789,16.3934646 22.701719,12.8936648 20.1195591,10.227745 L20.1195591,10.227745 Z" id="Shape"></path>
        </g>
    </g>
</svg>