<?xml version="1.0" encoding="UTF-8" standalone="no"?>
<svg width="30px" height="40px" viewBox="0 0 30 40" version="1.1" xmlns="http://www.w3.org/2000/svg" xmlns:xlink="http://www.w3.org/1999/xlink">
    <!-- Generator: Sketch 39.1 (31720) - http://www.bohemiancoding.com/sketch -->
    <title>volume-off</title>
    <desc>Created with Sketch.</desc>
    <defs></defs>
    <g id="Demonic" stroke="none" stroke-width="1" fill="none" fill-rule="evenodd">
        <g id="volume-off" fill="#FFFFFF">
            <path d="M15.8386606,12.0054843 L10.7429556,17.2285894 L9.06250394,17.2285894 C8.47805336,17.2285894 8.0049529,17.6828399 8.0049529,18.2427404 L8.0049529,21.1104932 C8.0049529,21.6710438 8.47805336,22.1246942 9.06250394,22.1246942 L10.7429556,22.1246942 L11.0901059,22.4551945 L7.2991522,26.2553983 C6.97120188,26.5751986 6.90220181,27.1811992 7.14540205,27.6098996 C7.29015219,27.8649999 7.51360241,28 7.74025263,28 C7.89230278,28 8.04755294,27.9390499 8.17995307,27.8102498 L12.3412572,23.7892959 L15.8386606,27.4823495 C15.9008607,27.5408495 15.9743107,27.5799996 16.0444108,27.6241996 L16.0444108,19.857792 L21.4127661,14.6600869 C21.7413664,14.3420866 22.1715168,13.736136 21.9290166,13.3080855 C21.6865164,12.8787851 20.8606655,12.787935 20.5320152,13.1058853 L16.0444108,17.4488896 L16.0444108,12.3325346 C15.9743107,12.3760346 15.9008607,11.9470342 15.8386606,12.0054843 L15.8386606,12.0054843 Z" id="Shape"></path>
        </g>
    </g>
</svg>