<?xml version="1.0" encoding="UTF-8" standalone="no"?>
<svg width="30px" height="40px" viewBox="0 0 30 40" version="1.1" xmlns="http://www.w3.org/2000/svg" xmlns:xlink="http://www.w3.org/1999/xlink">
    <!-- Generator: Sketch 3.8.3 (29802) - http://www.bohemiancoding.com/sketch -->
    <title>vr-dark</title>
    <desc>Created with Sketch.</desc>
    <defs></defs>
    <g id="Page-1" stroke="none" stroke-width="1" fill="none" fill-rule="evenodd">
        <g id="vr-dark" fill="#000000">
            <path d="M25.56,13 L4.44,13 C4.19555556,13 4,13.1955556 4,13.44 L4,25.76 C4,26.0044444 4.19555556,26.2 4.44,26.2 L12.4822222,26.2 C12.6777778,26.2 12.8488889,26.0777778 12.8977778,25.9066667 L13.9977778,22.5577778 C14.3155556,21.6044444 15.66,21.6044444 15.9777778,22.5577778 L17.1022222,25.9066667 C17.1511111,26.0777778 17.3222222,26.2 17.5177778,26.2 L25.56,26.2 C25.8044444,26.2 26,26.0044444 26,25.76 L26,13.44 C26,13.1955556 25.8044444,13 25.56,13 L25.56,13 Z M9.5,21.8 C8.27777778,21.8 7.3,20.8222222 7.3,19.6 C7.3,18.3777778 8.27777778,17.4 9.5,17.4 C10.7222222,17.4 11.7,18.3777778 11.7,19.6 C11.7,20.8222222 10.7222222,21.8 9.5,21.8 L9.5,21.8 Z M20.5,21.8 C19.2777778,21.8 18.3,20.8222222 18.3,19.6 C18.3,18.3777778 19.2777778,17.4 20.5,17.4 C21.7222222,17.4 22.7,18.3777778 22.7,19.6 C22.7,20.8222222 21.7222222,21.8 20.5,21.8 L20.5,21.8 Z" id="Shape"></path>
        </g>
    </g>
</svg>