<svg width="40" height="40" viewBox="0 0 40 40" fill="none" xmlns="http://www.w3.org/2000/svg">
<path d="M16.25 24.75C15.3472 24.75 14.5799 24.434 13.9479 23.8021C13.316 23.1701 13 22.4028 13 21.5V18.4583C13 17.8333 13.1875 17.2708 13.5625 16.7708C13.9375 16.2708 14.4375 15.9444 15.0625 15.7917C15.8681 15.5972 16.684 15.4583 17.5104 15.375C18.3368 15.2917 19.1667 15.25 20 15.25C20.8333 15.25 21.6632 15.2917 22.4896 15.375C23.316 15.4583 24.1319 15.5972 24.9375 15.7917C25.5625 15.9444 26.0625 16.2708 26.4375 16.7708C26.8125 17.2708 27 17.8333 27 18.4583V21.5C27 22.4028 26.684 23.1701 26.0521 23.8021C25.4201 24.434 24.6528 24.75 23.75 24.75H22.9792C22.7708 24.75 22.566 24.7292 22.3646 24.6875C22.1632 24.6458 21.9653 24.5903 21.7708 24.5208L20.6458 24.0625C20.4375 23.9792 20.2222 23.9375 20 23.9375C19.7778 23.9375 19.5625 23.9792 19.3542 24.0625L18.2292 24.5208C18.0347 24.5903 17.8368 24.6458 17.6354 24.6875C17.434 24.7292 17.2292 24.75 17.0208 24.75H16.25ZM16.25 23.25H17.0208C17.1319 23.25 17.2396 23.2396 17.3438 23.2188C17.4479 23.1979 17.5556 23.1667 17.6667 23.125C18.0556 22.9722 18.441 22.8229 18.8229 22.6771C19.2049 22.5312 19.5972 22.4583 20 22.4583C20.4028 22.4583 20.7986 22.5312 21.1875 22.6771C21.5764 22.8229 21.9583 22.9722 22.3333 23.125C22.4444 23.1667 22.5521 23.1979 22.6562 23.2188C22.7604 23.2396 22.8681 23.25 22.9792 23.25H23.75C24.2361 23.25 24.6493 23.0799 24.9896 22.7396C25.3299 22.3993 25.5 21.9861 25.5 21.5V18.4583C25.5 18.1806 25.4132 17.9271 25.2396 17.6979C25.066 17.4688 24.8403 17.3194 24.5625 17.25C23.8125 17.0556 23.059 16.9236 22.3021 16.8542C21.5451 16.7847 20.7778 16.75 20 16.75C19.2222 16.75 18.4549 16.7882 17.6979 16.8646C16.941 16.941 16.1875 17.0694 15.4375 17.25C15.1597 17.3194 14.934 17.4688 14.7604 17.6979C14.5868 17.9271 14.5 18.1806 14.5 18.4583V21.5C14.5 21.9861 14.6701 22.3993 15.0104 22.7396C15.3507 23.0799 15.7639 23.25 16.25 23.25ZM11 21.75V18.25H12V21.75H11ZM28 21.75V18.25H29V21.75H28ZM16.25 23.25C15.7639 23.25 15.3507 23.0799 15.0104 22.7396C14.6701 22.3993 14.5 21.9861 14.5 21.5V18.4583C14.5 18.1806 14.5868 17.9271 14.7604 17.6979C14.934 17.4688 15.1597 17.3194 15.4375 17.25C16.1875 17.0694 16.941 16.941 17.6979 16.8646C18.4549 16.7882 19.2222 16.75 20 16.75C20.7778 16.75 21.5451 16.7847 22.3021 16.8542C23.059 16.9236 23.8125 17.0556 24.5625 17.25C24.8403 17.3194 25.066 17.4688 25.2396 17.6979C25.4132 17.9271 25.5 18.1806 25.5 18.4583V21.5C25.5 21.9861 25.3299 22.3993 24.9896 22.7396C24.6493 23.0799 24.2361 23.25 23.75 23.25H22.9792C22.8681 23.25 22.7604 23.2396 22.6562 23.2188C22.5521 23.1979 22.4444 23.1667 22.3333 23.125C21.9583 22.9722 21.5764 22.8229 21.1875 22.6771C20.7986 22.5312 20.4028 22.4583 20 22.4583C19.5972 22.4583 19.2049 22.5312 18.8229 22.6771C18.441 22.8229 18.0556 22.9722 17.6667 23.125C17.5556 23.1667 17.4479 23.1979 17.3438 23.2188C17.2396 23.2396 17.1319 23.25 17.0208 23.25H16.25Z" fill="white"/>
</svg>
