<?xml version="1.0" encoding="UTF-8" standalone="no"?>
<svg width="50px" height="50px" viewBox="0 0 50 50" version="1.1" xmlns="http://www.w3.org/2000/svg" xmlns:xlink="http://www.w3.org/1999/xlink">
    <!-- Generator: Sketch 3.8.2 (29753) - http://www.bohemiancoding.com/sketch -->
    <title>warning</title>
    <desc>Created with Sketch.</desc>
    <defs></defs>
    <g id="Page-1" stroke="none" stroke-width="1" fill="none" fill-rule="evenodd">
        <g id="warning" fill="#FFFFFF">
            <path d="M47.7561652,41.0780731 L26.6336108,6.3593577 C25.531359,4.54688077 23.7273723,4.54688077 22.6243823,6.3593577 L1.49370677,41.0780731 C0.38924018,42.8927649 1.20171711,44.3752307 3.29400209,44.3752307 L45.9558699,44.3752307 C48.0496315,44.3752307 48.8606318,42.8927649 47.7561652,41.0780731 L47.7561652,41.0780731 Z M24.8096905,38.0873016 C23.4946112,38.0873016 22.4287382,37.0214286 22.4287382,35.7063492 C22.4287382,34.3912698 23.4946112,33.3253968 24.8096905,33.3253968 C26.1239762,33.3253968 27.1906429,34.3912698 27.1906429,35.7063492 C27.1906429,37.0214286 26.1239762,38.0873016 24.8096905,38.0873016 L24.8096905,38.0873016 Z M27.1906429,31.4206349 L22.4287382,31.4206349 L22.4287382,18.0873016 L27.1906429,18.0873016 L27.1906429,28.8713547 L27.1906429,31.4206349 Z" id="Shape"></path>
        </g>
    </g>
</svg>