<svg width="50" height="50" viewBox="0 0 50 50" fill="none" xmlns="http://www.w3.org/2000/svg">
<path d="M11.5 35.5L25 13L38.5 35.5H11.5ZM24.9934 31.75C25.3103 31.75 25.5781 31.6428 25.7969 31.4284C26.0156 31.2141 26.125 30.9484 26.125 30.6316C26.125 30.3147 26.0178 30.0469 25.8034 29.8281C25.5891 29.6094 25.3234 29.5 25.0066 29.5C24.6897 29.5 24.4219 29.6072 24.2031 29.8216C23.9844 30.0359 23.875 30.3016 23.875 30.6184C23.875 30.9353 23.9822 31.2031 24.1966 31.4219C24.4109 31.6406 24.6766 31.75 24.9934 31.75ZM23.875 28H26.125V22H23.875V28Z" fill="white"/>
</svg>
